<svg xmlns="http://www.w3.org/2000/svg" width="1000" height="600">
<style>text{font-family:sans-serif;font-size:12px}</style>
<text x="80" y="52" font-size="16">Sample Wafer Map - 반도체 공정 데이터 시각화</text>
<rect x="80" y="80" width="620" height="440" stroke="black" fill="none" stroke-width="2"/>
<defs>
<clipPath id="waferClip">
<circle cx="390.0" cy="300.0" r="202.4"/>
</clipPath>
</defs>
<g clip-path="url(#waferClip)">
<line x1="80" y1="80" x2="80" y2="520" stroke="#2b5aa0" stroke-opacity="0.25" stroke-width="1"/>
<line x1="100" y1="80" x2="100" y2="520" stroke="#2b5aa0" stroke-opacity="0.25" stroke-width="1"/>
<line x1="120" y1="80" x2="120" y2="520" stroke="#2b5aa0" stroke-opacity="0.25" stroke-width="1"/>
<line x1="140" y1="80" x2="140" y2="520" stroke="#2b5aa0" stroke-opacity="0.25" stroke-width="1"/>
<line x1="160" y1="80" x2="160" y2="520" stroke="#2b5aa0" stroke-opacity="0.25" stroke-width="1"/>
<line x1="180" y1="80" x2="180" y2="520" stroke="#2b5aa0" stroke-opacity="0.25" stroke-width="1"/>
<line x1="200" y1="80" x2="200" y2="520" stroke="#2b5aa0" stroke-opacity="0.25" stroke-width="1"/>
<line x1="220" y1="80" x2="220" y2="520" stroke="#2b5aa0" stroke-opacity="0.25" stroke-width="1"/>
<line x1="240" y1="80" x2="240" y2="520" stroke="#2b5aa0" stroke-opacity="0.25" stroke-width="1"/>
<line x1="260" y1="80" x2="260" y2="520" stroke="#2b5aa0" stroke-opacity="0.25" stroke-width="1"/>
<line x1="280" y1="80" x2="280" y2="520" stroke="#2b5aa0" stroke-opacity="0.25" stroke-width="1"/>
<line x1="300" y1="80" x2="300" y2="520" stroke="#2b5aa0" stroke-opacity="0.25" stroke-width="1"/>
<line x1="320" y1="80" x2="320" y2="520" stroke="#2b5aa0" stroke-opacity="0.25" stroke-width="1"/>
<line x1="340" y1="80" x2="340" y2="520" stroke="#2b5aa0" stroke-opacity="0.25" stroke-width="1"/>
<line x1="360" y1="80" x2="360" y2="520" stroke="#2b5aa0" stroke-opacity="0.25" stroke-width="1"/>
<line x1="380" y1="80" x2="380" y2="520" stroke="#2b5aa0" stroke-opacity="0.25" stroke-width="1"/>
<line x1="400" y1="80" x2="400" y2="520" stroke="#2b5aa0" stroke-opacity="0.25" stroke-width="1"/>
<line x1="420" y1="80" x2="420" y2="520" stroke="#2b5aa0" stroke-opacity="0.25" stroke-width="1"/>
<line x1="440" y1="80" x2="440" y2="520" stroke="#2b5aa0" stroke-opacity="0.25" stroke-width="1"/>
<line x1="460" y1="80" x2="460" y2="520" stroke="#2b5aa0" stroke-opacity="0.25" stroke-width="1"/>
<line x1="480" y1="80" x2="480" y2="520" stroke="#2b5aa0" stroke-opacity="0.25" stroke-width="1"/>
<line x1="500" y1="80" x2="500" y2="520" stroke="#2b5aa0" stroke-opacity="0.25" stroke-width="1"/>
<line x1="520" y1="80" x2="520" y2="520" stroke="#2b5aa0" stroke-opacity="0.25" stroke-width="1"/>
<line x1="540" y1="80" x2="540" y2="520" stroke="#2b5aa0" stroke-opacity="0.25" stroke-width="1"/>
<line x1="560" y1="80" x2="560" y2="520" stroke="#2b5aa0" stroke-opacity="0.25" stroke-width="1"/>
<line x1="580" y1="80" x2="580" y2="520" stroke="#2b5aa0" stroke-opacity="0.25" stroke-width="1"/>
<line x1="600" y1="80" x2="600" y2="520" stroke="#2b5aa0" stroke-opacity="0.25" stroke-width="1"/>
<line x1="620" y1="80" x2="620" y2="520" stroke="#2b5aa0" stroke-opacity="0.25" stroke-width="1"/>
<line x1="640" y1="80" x2="640" y2="520" stroke="#2b5aa0" stroke-opacity="0.25" stroke-width="1"/>
<line x1="660" y1="80" x2="660" y2="520" stroke="#2b5aa0" stroke-opacity="0.25" stroke-width="1"/>
<line x1="680" y1="80" x2="680" y2="520" stroke="#2b5aa0" stroke-opacity="0.25" stroke-width="1"/>
<line x1="700" y1="80" x2="700" y2="520" stroke="#2b5aa0" stroke-opacity="0.25" stroke-width="1"/>
<line x1="80" y1="80" x2="700" y2="80" stroke="#2b5aa0" stroke-opacity="0.25" stroke-width="1"/>
<line x1="80" y1="100" x2="700" y2="100" stroke="#2b5aa0" stroke-opacity="0.25" stroke-width="1"/>
<line x1="80" y1="120" x2="700" y2="120" stroke="#2b5aa0" stroke-opacity="0.25" stroke-width="1"/>
<line x1="80" y1="140" x2="700" y2="140" stroke="#2b5aa0" stroke-opacity="0.25" stroke-width="1"/>
<line x1="80" y1="160" x2="700" y2="160" stroke="#2b5aa0" stroke-opacity="0.25" stroke-width="1"/>
<line x1="80" y1="180" x2="700" y2="180" stroke="#2b5aa0" stroke-opacity="0.25" stroke-width="1"/>
<line x1="80" y1="200" x2="700" y2="200" stroke="#2b5aa0" stroke-opacity="0.25" stroke-width="1"/>
<line x1="80" y1="220" x2="700" y2="220" stroke="#2b5aa0" stroke-opacity="0.25" stroke-width="1"/>
<line x1="80" y1="240" x2="700" y2="240" stroke="#2b5aa0" stroke-opacity="0.25" stroke-width="1"/>
<line x1="80" y1="260" x2="700" y2="260" stroke="#2b5aa0" stroke-opacity="0.25" stroke-width="1"/>
<line x1="80" y1="280" x2="700" y2="280" stroke="#2b5aa0" stroke-opacity="0.25" stroke-width="1"/>
<line x1="80" y1="300" x2="700" y2="300" stroke="#2b5aa0" stroke-opacity="0.25" stroke-width="1"/>
<line x1="80" y1="320" x2="700" y2="320" stroke="#2b5aa0" stroke-opacity="0.25" stroke-width="1"/>
<line x1="80" y1="340" x2="700" y2="340" stroke="#2b5aa0" stroke-opacity="0.25" stroke-width="1"/>
<line x1="80" y1="360" x2="700" y2="360" stroke="#2b5aa0" stroke-opacity="0.25" stroke-width="1"/>
<line x1="80" y1="380" x2="700" y2="380" stroke="#2b5aa0" stroke-opacity="0.25" stroke-width="1"/>
<line x1="80" y1="400" x2="700" y2="400" stroke="#2b5aa0" stroke-opacity="0.25" stroke-width="1"/>
<line x1="80" y1="420" x2="700" y2="420" stroke="#2b5aa0" stroke-opacity="0.25" stroke-width="1"/>
<line x1="80" y1="440" x2="700" y2="440" stroke="#2b5aa0" stroke-opacity="0.25" stroke-width="1"/>
<line x1="80" y1="460" x2="700" y2="460" stroke="#2b5aa0" stroke-opacity="0.25" stroke-width="1"/>
<line x1="80" y1="480" x2="700" y2="480" stroke="#2b5aa0" stroke-opacity="0.25" stroke-width="1"/>
<line x1="80" y1="500" x2="700" y2="500" stroke="#2b5aa0" stroke-opacity="0.25" stroke-width="1"/>
<line x1="80" y1="520" x2="700" y2="520" stroke="#2b5aa0" stroke-opacity="0.25" stroke-width="1"/>
</g>
<g clip-path="url(#waferClip)">
<polygon points="336.03,502.40 349.52,502.40 349.52,488.91 336.03,488.91" fill="#C73E1D" stroke="none"/>
<polygon points="349.52,502.40 363.01,502.40 363.01,488.91 349.52,488.91" fill="#F18F01" stroke="none"/>
<polygon points="363.01,502.40 376.51,502.40 376.51,488.91 363.01,488.91" fill="#F18F01" stroke="none"/>
<polygon points="376.51,502.40 390.00,502.40 390.00,488.91 376.51,488.91" fill="#F18F01" stroke="none"/>
<polygon points="390.00,502.40 403.49,502.40 403.49,488.91 390.00,488.91" fill="#F18F01" stroke="none"/>
<polygon points="403.49,502.40 416.99,502.40 416.99,488.91 403.49,488.91" fill="#F18F01" stroke="none"/>
<polygon points="416.99,502.40 430.48,502.40 430.48,488.91 416.99,488.91" fill="#F18F01" stroke="none"/>
<polygon points="430.48,502.40 443.97,502.40 443.97,488.91 430.48,488.91" fill="#F18F01" stroke="none"/>
<polygon points="295.55,488.91 309.04,488.91 309.04,475.41 295.55,475.41" fill="#C73E1D" stroke="none"/>
<polygon points="309.04,488.91 322.53,488.91 322.53,475.41 309.04,475.41" fill="#F18F01" stroke="none"/>
<polygon points="322.53,488.91 336.03,488.91 336.03,475.41 322.53,475.41" fill="#F18F01" stroke="none"/>
<polygon points="336.03,488.91 349.52,488.91 349.52,475.41 336.03,475.41" fill="#F18F01" stroke="none"/>
<polygon points="349.52,488.91 363.01,488.91 363.01,475.41 349.52,475.41" fill="#F18F01" stroke="none"/>
<polygon points="363.01,488.91 376.51,488.91 376.51,475.41 363.01,475.41" fill="#F18F01" stroke="none"/>
<polygon points="376.51,488.91 390.00,488.91 390.00,475.41 376.51,475.41" fill="#A23B72" stroke="none"/>
<polygon points="390.00,488.91 403.49,488.91 403.49,475.41 390.00,475.41" fill="#A23B72" stroke="none"/>
<polygon points="403.49,488.91 416.99,488.91 416.99,475.41 403.49,475.41" fill="#A23B72" stroke="none"/>
<polygon points="416.99,488.91 430.48,488.91 430.48,475.41 416.99,475.41" fill="#A23B72" stroke="none"/>
<polygon points="430.48,488.91 443.97,488.91 443.97,475.41 430.48,475.41" fill="#F18F01" stroke="none"/>
<polygon points="443.97,488.91 457.47,488.91 457.47,475.41 443.97,475.41" fill="#F18F01" stroke="none"/>
<polygon points="457.47,488.91 470.96,488.91 470.96,475.41 457.47,475.41" fill="#F18F01" stroke="none"/>
<polygon points="470.96,488.91 484.45,488.91 484.45,475.41 470.96,475.41" fill="#C73E1D" stroke="none"/>
<polygon points="282.05,475.41 295.55,475.41 295.55,461.92 282.05,461.92" fill="#F18F01" stroke="none"/>
<polygon points="295.55,475.41 309.04,475.41 309.04,461.92 295.55,461.92" fill="#A23B72" stroke="none"/>
<polygon points="309.04,475.41 322.53,475.41 322.53,461.92 309.04,461.92" fill="#F18F01" stroke="none"/>
<polygon points="322.53,475.41 336.03,475.41 336.03,461.92 322.53,461.92" fill="#A23B72" stroke="none"/>
<polygon points="336.03,475.41 349.52,475.41 349.52,461.92 336.03,461.92" fill="#A23B72" stroke="none"/>
<polygon points="349.52,475.41 363.01,475.41 363.01,461.92 349.52,461.92" fill="#A23B72" stroke="none"/>
<polygon points="363.01,475.41 376.51,475.41 376.51,461.92 363.01,461.92" fill="#A23B72" stroke="none"/>
<polygon points="376.51,475.41 390.00,475.41 390.00,461.92 376.51,461.92" fill="#A23B72" stroke="none"/>
<polygon points="390.00,475.41 403.49,475.41 403.49,461.92 390.00,461.92" fill="#A23B72" stroke="none"/>
<polygon points="403.49,475.41 416.99,475.41 416.99,461.92 403.49,461.92" fill="#A23B72" stroke="none"/>
<polygon points="416.99,475.41 430.48,475.41 430.48,461.92 416.99,461.92" fill="#A23B72" stroke="none"/>
<polygon points="430.48,475.41 443.97,475.41 443.97,461.92 430.48,461.92" fill="#A23B72" stroke="none"/>
<polygon points="443.97,475.41 457.47,475.41 457.47,461.92 443.97,461.92" fill="#F18F01" stroke="none"/>
<polygon points="457.47,475.41 470.96,475.41 470.96,461.92 457.47,461.92" fill="#A23B72" stroke="none"/>
<polygon points="470.96,475.41 484.45,475.41 484.45,461.92 470.96,461.92" fill="#F18F01" stroke="none"/>
<polygon points="484.45,475.41 497.95,475.41 497.95,461.92 484.45,461.92" fill="#F18F01" stroke="none"/>
<polygon points="255.07,461.92 268.56,461.92 268.56,448.43 255.07,448.43" fill="#F18F01" stroke="none"/>
<polygon points="268.56,461.92 282.05,461.92 282.05,448.43 268.56,448.43" fill="#F18F01" stroke="none"/>
<polygon points="282.05,461.92 295.55,461.92 295.55,448.43 282.05,448.43" fill="#F18F01" stroke="none"/>
<polygon points="295.55,461.92 309.04,461.92 309.04,448.43 295.55,448.43" fill="#A23B72" stroke="none"/>
<polygon points="309.04,461.92 322.53,461.92 322.53,448.43 309.04,448.43" fill="#A23B72" stroke="none"/>
<polygon points="322.53,461.92 336.03,461.92 336.03,448.43 322.53,448.43" fill="#A23B72" stroke="none"/>
<polygon points="336.03,461.92 349.52,461.92 349.52,448.43 336.03,448.43" fill="#A23B72" stroke="none"/>
<polygon points="349.52,461.92 363.01,461.92 363.01,448.43 349.52,448.43" fill="#A23B72" stroke="none"/>
<polygon points="363.01,461.92 376.51,461.92 376.51,448.43 363.01,448.43" fill="#2E86AB" stroke="none"/>
<polygon points="376.51,461.92 390.00,461.92 390.00,448.43 376.51,448.43" fill="#A23B72" stroke="none"/>
<polygon points="390.00,461.92 403.49,461.92 403.49,448.43 390.00,448.43" fill="#2E86AB" stroke="none"/>
<polygon points="403.49,461.92 416.99,461.92 416.99,448.43 403.49,448.43" fill="#A23B72" stroke="none"/>
<polygon points="416.99,461.92 430.48,461.92 430.48,448.43 416.99,448.43" fill="#2E86AB" stroke="none"/>
<polygon points="430.48,461.92 443.97,461.92 443.97,448.43 430.48,448.43" fill="#2E86AB" stroke="none"/>
<polygon points="443.97,461.92 457.47,461.92 457.47,448.43 443.97,448.43" fill="#2E86AB" stroke="none"/>
<polygon points="457.47,461.92 470.96,461.92 470.96,448.43 457.47,448.43" fill="#A23B72" stroke="none"/>
<polygon points="470.96,461.92 484.45,461.92 484.45,448.43 470.96,448.43" fill="#A23B72" stroke="none"/>
<polygon points="484.45,461.92 497.95,461.92 497.95,448.43 484.45,448.43" fill="#A23B72" stroke="none"/>
<polygon points="497.95,461.92 511.44,461.92 511.44,448.43 497.95,448.43" fill="#F18F01" stroke="none"/>
<polygon points="511.44,461.92 524.93,461.92 524.93,448.43 511.44,448.43" fill="#F18F01" stroke="none"/>
<polygon points="241.57,448.43 255.07,448.43 255.07,434.93 241.57,434.93" fill="#F18F01" stroke="none"/>
<polygon points="255.07,448.43 268.56,448.43 268.56,434.93 255.07,434.93" fill="#F18F01" stroke="none"/>
<polygon points="268.56,448.43 282.05,448.43 282.05,434.93 268.56,434.93" fill="#A23B72" stroke="none"/>
<polygon points="282.05,448.43 295.55,448.43 295.55,434.93 282.05,434.93" fill="#A23B72" stroke="none"/>
<polygon points="295.55,448.43 309.04,448.43 309.04,434.93 295.55,434.93" fill="#A23B72" stroke="none"/>
<polygon points="309.04,448.43 322.53,448.43 322.53,434.93 309.04,434.93" fill="#2E86AB" stroke="none"/>
<polygon points="322.53,448.43 336.03,448.43 336.03,434.93 322.53,434.93" fill="#2E86AB" stroke="none"/>
<polygon points="336.03,448.43 349.52,448.43 349.52,434.93 336.03,434.93" fill="#2E86AB" stroke="none"/>
<polygon points="349.52,448.43 363.01,448.43 363.01,434.93 349.52,434.93" fill="#2E86AB" stroke="none"/>
<polygon points="363.01,448.43 376.51,448.43 376.51,434.93 363.01,434.93" fill="#A23B72" stroke="none"/>
<polygon points="376.51,448.43 390.00,448.43 390.00,434.93 376.51,434.93" fill="#2E86AB" stroke="none"/>
<polygon points="390.00,448.43 403.49,448.43 403.49,434.93 390.00,434.93" fill="#2E86AB" stroke="none"/>
<polygon points="403.49,448.43 416.99,448.43 416.99,434.93 403.49,434.93" fill="#2E86AB" stroke="none"/>
<polygon points="416.99,448.43 430.48,448.43 430.48,434.93 416.99,434.93" fill="#2E86AB" stroke="none"/>
<polygon points="430.48,448.43 443.97,448.43 443.97,434.93 430.48,434.93" fill="#2E86AB" stroke="none"/>
<polygon points="443.97,448.43 457.47,448.43 457.47,434.93 443.97,434.93" fill="#A23B72" stroke="none"/>
<polygon points="457.47,448.43 470.96,448.43 470.96,434.93 457.47,434.93" fill="#A23B72" stroke="none"/>
<polygon points="470.96,448.43 484.45,448.43 484.45,434.93 470.96,434.93" fill="#2E86AB" stroke="none"/>
<polygon points="484.45,448.43 497.95,448.43 497.95,434.93 484.45,434.93" fill="#A23B72" stroke="none"/>
<polygon points="497.95,448.43 511.44,448.43 511.44,434.93 497.95,434.93" fill="#A23B72" stroke="none"/>
<polygon points="511.44,448.43 524.93,448.43 524.93,434.93 511.44,434.93" fill="#F18F01" stroke="none"/>
<polygon points="524.93,448.43 538.43,448.43 538.43,434.93 524.93,434.93" fill="#F18F01" stroke="none"/>
<polygon points="228.08,434.93 241.57,434.93 241.57,421.44 228.08,421.44" fill="#F18F01" stroke="none"/>
<polygon points="241.57,434.93 255.07,434.93 255.07,421.44 241.57,421.44" fill="#F18F01" stroke="none"/>
<polygon points="255.07,434.93 268.56,434.93 268.56,421.44 255.07,421.44" fill="#F18F01" stroke="none"/>
<polygon points="268.56,434.93 282.05,434.93 282.05,421.44 268.56,421.44" fill="#A23B72" stroke="none"/>
<polygon points="282.05,434.93 295.55,434.93 295.55,421.44 282.05,421.44" fill="#A23B72" stroke="none"/>
<polygon points="295.55,434.93 309.04,434.93 309.04,421.44 295.55,421.44" fill="#A23B72" stroke="none"/>
<polygon points="309.04,434.93 322.53,434.93 322.53,421.44 309.04,421.44" fill="#A23B72" stroke="none"/>
<polygon points="322.53,434.93 336.03,434.93 336.03,421.44 322.53,421.44" fill="#2E86AB" stroke="none"/>
<polygon points="336.03,434.93 349.52,434.93 349.52,421.44 336.03,421.44" fill="#2E86AB" stroke="none"/>
<polygon points="349.52,434.93 363.01,434.93 363.01,421.44 349.52,421.44" fill="#2E86AB" stroke="none"/>
<polygon points="363.01,434.93 376.51,434.93 376.51,421.44 363.01,421.44" fill="#2E86AB" stroke="none"/>
<polygon points="376.51,434.93 390.00,434.93 390.00,421.44 376.51,421.44" fill="#A23B72" stroke="none"/>
<polygon points="390.00,434.93 403.49,434.93 403.49,421.44 390.00,421.44" fill="#A23B72" stroke="none"/>
<polygon points="403.49,434.93 416.99,434.93 416.99,421.44 403.49,421.44" fill="#2E86AB" stroke="none"/>
<polygon points="416.99,434.93 430.48,434.93 430.48,421.44 416.99,421.44" fill="#A23B72" stroke="none"/>
<polygon points="430.48,434.93 443.97,434.93 443.97,421.44 430.48,421.44" fill="#A23B72" stroke="none"/>
<polygon points="443.97,434.93 457.47,434.93 457.47,421.44 443.97,421.44" fill="#2E86AB" stroke="none"/>
<polygon points="457.47,434.93 470.96,434.93 470.96,421.44 457.47,421.44" fill="#2E86AB" stroke="none"/>
<polygon points="470.96,434.93 484.45,434.93 484.45,421.44 470.96,421.44" fill="#A23B72" stroke="none"/>
<polygon points="484.45,434.93 497.95,434.93 497.95,421.44 484.45,421.44" fill="#2E86AB" stroke="none"/>
<polygon points="497.95,434.93 511.44,434.93 511.44,421.44 497.95,421.44" fill="#A23B72" stroke="none"/>
<polygon points="511.44,434.93 524.93,434.93 524.93,421.44 511.44,421.44" fill="#F18F01" stroke="none"/>
<polygon points="524.93,434.93 538.43,434.93 538.43,421.44 524.93,421.44" fill="#A23B72" stroke="none"/>
<polygon points="538.43,434.93 551.92,434.93 551.92,421.44 538.43,421.44" fill="#F18F01" stroke="none"/>
<polygon points="228.08,421.44 241.57,421.44 241.57,407.95 228.08,407.95" fill="#F18F01" stroke="none"/>
<polygon points="241.57,421.44 255.07,421.44 255.07,407.95 241.57,407.95" fill="#A23B72" stroke="none"/>
<polygon points="255.07,421.44 268.56,421.44 268.56,407.95 255.07,407.95" fill="#A23B72" stroke="none"/>
<polygon points="268.56,421.44 282.05,421.44 282.05,407.95 268.56,407.95" fill="#A23B72" stroke="none"/>
<polygon points="282.05,421.44 295.55,421.44 295.55,407.95 282.05,407.95" fill="#2E86AB" stroke="none"/>
<polygon points="295.55,421.44 309.04,421.44 309.04,407.95 295.55,407.95" fill="#A23B72" stroke="none"/>
<polygon points="309.04,421.44 322.53,421.44 322.53,407.95 309.04,407.95" fill="#A23B72" stroke="none"/>
<polygon points="322.53,421.44 336.03,421.44 336.03,407.95 322.53,407.95" fill="#A23B72" stroke="none"/>
<polygon points="336.03,421.44 349.52,421.44 349.52,407.95 336.03,407.95" fill="#A23B72" stroke="none"/>
<polygon points="349.52,421.44 363.01,421.44 363.01,407.95 349.52,407.95" fill="#A23B72" stroke="none"/>
<polygon points="363.01,421.44 376.51,421.44 376.51,407.95 363.01,407.95" fill="#A23B72" stroke="none"/>
<polygon points="376.51,421.44 390.00,421.44 390.00,407.95 376.51,407.95" fill="#F18F01" stroke="none"/>
<polygon points="390.00,421.44 403.49,421.44 403.49,407.95 390.00,407.95" fill="#F18F01" stroke="none"/>
<polygon points="403.49,421.44 416.99,421.44 416.99,407.95 403.49,407.95" fill="#F18F01" stroke="none"/>
<polygon points="416.99,421.44 430.48,421.44 430.48,407.95 416.99,407.95" fill="#A23B72" stroke="none"/>
<polygon points="430.48,421.44 443.97,421.44 443.97,407.95 430.48,407.95" fill="#A23B72" stroke="none"/>
<polygon points="443.97,421.44 457.47,421.44 457.47,407.95 443.97,407.95" fill="#2E86AB" stroke="none"/>
<polygon points="457.47,421.44 470.96,421.44 470.96,407.95 457.47,407.95" fill="#A23B72" stroke="none"/>
<polygon points="470.96,421.44 484.45,421.44 484.45,407.95 470.96,407.95" fill="#A23B72" stroke="none"/>
<polygon points="484.45,421.44 497.95,421.44 497.95,407.95 484.45,407.95" fill="#A23B72" stroke="none"/>
<polygon points="497.95,421.44 511.44,421.44 511.44,407.95 497.95,407.95" fill="#2E86AB" stroke="none"/>
<polygon points="511.44,421.44 524.93,421.44 524.93,407.95 511.44,407.95" fill="#A23B72" stroke="none"/>
<polygon points="524.93,421.44 538.43,421.44 538.43,407.95 524.93,407.95" fill="#A23B72" stroke="none"/>
<polygon points="538.43,421.44 551.92,421.44 551.92,407.95 538.43,407.95" fill="#A23B72" stroke="none"/>
<polygon points="214.59,407.95 228.08,407.95 228.08,394.45 214.59,394.45" fill="#F18F01" stroke="none"/>
<polygon points="228.08,407.95 241.57,407.95 241.57,394.45 228.08,394.45" fill="#F18F01" stroke="none"/>
<polygon points="241.57,407.95 255.07,407.95 255.07,394.45 241.57,394.45" fill="#A23B72" stroke="none"/>
<polygon points="255.07,407.95 268.56,407.95 268.56,394.45 255.07,394.45" fill="#A23B72" stroke="none"/>
<polygon points="268.56,407.95 282.05,407.95 282.05,394.45 268.56,394.45" fill="#2E86AB" stroke="none"/>
<polygon points="282.05,407.95 295.55,407.95 295.55,394.45 282.05,394.45" fill="#2E86AB" stroke="none"/>
<polygon points="295.55,407.95 309.04,407.95 309.04,394.45 295.55,394.45" fill="#A23B72" stroke="none"/>
<polygon points="309.04,407.95 322.53,407.95 322.53,394.45 309.04,394.45" fill="#2E86AB" stroke="none"/>
<polygon points="322.53,407.95 336.03,407.95 336.03,394.45 322.53,394.45" fill="#A23B72" stroke="none"/>
<polygon points="336.03,407.95 349.52,407.95 349.52,394.45 336.03,394.45" fill="#2E86AB" stroke="none"/>
<polygon points="349.52,407.95 363.01,407.95 363.01,394.45 349.52,394.45" fill="#F18F01" stroke="none"/>
<polygon points="363.01,407.95 376.51,407.95 376.51,394.45 363.01,394.45" fill="#F18F01" stroke="none"/>
<polygon points="376.51,407.95 390.00,407.95 390.00,394.45 376.51,394.45" fill="#F18F01" stroke="none"/>
<polygon points="390.00,407.95 403.49,407.95 403.49,394.45 390.00,394.45" fill="#A23B72" stroke="none"/>
<polygon points="403.49,407.95 416.99,407.95 416.99,394.45 403.49,394.45" fill="#F18F01" stroke="none"/>
<polygon points="416.99,407.95 430.48,407.95 430.48,394.45 416.99,394.45" fill="#A23B72" stroke="none"/>
<polygon points="430.48,407.95 443.97,407.95 443.97,394.45 430.48,394.45" fill="#A23B72" stroke="none"/>
<polygon points="443.97,407.95 457.47,407.95 457.47,394.45 443.97,394.45" fill="#A23B72" stroke="none"/>
<polygon points="457.47,407.95 470.96,407.95 470.96,394.45 457.47,394.45" fill="#2E86AB" stroke="none"/>
<polygon points="470.96,407.95 484.45,407.95 484.45,394.45 470.96,394.45" fill="#A23B72" stroke="none"/>
<polygon points="484.45,407.95 497.95,407.95 497.95,394.45 484.45,394.45" fill="#2E86AB" stroke="none"/>
<polygon points="497.95,407.95 511.44,407.95 511.44,394.45 497.95,394.45" fill="#2E86AB" stroke="none"/>
<polygon points="511.44,407.95 524.93,407.95 524.93,394.45 511.44,394.45" fill="#A23B72" stroke="none"/>
<polygon points="524.93,407.95 538.43,407.95 538.43,394.45 524.93,394.45" fill="#A23B72" stroke="none"/>
<polygon points="538.43,407.95 551.92,407.95 551.92,394.45 538.43,394.45" fill="#A23B72" stroke="none"/>
<polygon points="551.92,407.95 565.41,407.95 565.41,394.45 551.92,394.45" fill="#A23B72" stroke="none"/>
<polygon points="201.09,394.45 214.59,394.45 214.59,380.96 201.09,380.96" fill="#F18F01" stroke="none"/>
<polygon points="214.59,394.45 228.08,394.45 228.08,380.96 214.59,380.96" fill="#F18F01" stroke="none"/>
<polygon points="228.08,394.45 241.57,394.45 241.57,380.96 228.08,380.96" fill="#A23B72" stroke="none"/>
<polygon points="241.57,394.45 255.07,394.45 255.07,380.96 241.57,380.96" fill="#A23B72" stroke="none"/>
<polygon points="255.07,394.45 268.56,394.45 268.56,380.96 255.07,380.96" fill="#2E86AB" stroke="none"/>
<polygon points="268.56,394.45 282.05,394.45 282.05,380.96 268.56,380.96" fill="#A23B72" stroke="none"/>
<polygon points="282.05,394.45 295.55,394.45 295.55,380.96 282.05,380.96" fill="#2E86AB" stroke="none"/>
<polygon points="295.55,394.45 309.04,394.45 309.04,380.96 295.55,380.96" fill="#A23B72" stroke="none"/>
<polygon points="309.04,394.45 322.53,394.45 322.53,380.96 309.04,380.96" fill="#A23B72" stroke="none"/>
<polygon points="322.53,394.45 336.03,394.45 336.03,380.96 322.53,380.96" fill="#A23B72" stroke="none"/>
<polygon points="336.03,394.45 349.52,394.45 349.52,380.96 336.03,380.96" fill="#F18F01" stroke="none"/>
<polygon points="349.52,394.45 363.01,394.45 363.01,380.96 349.52,380.96" fill="#F18F01" stroke="none"/>
<polygon points="363.01,394.45 376.51,394.45 376.51,380.96 363.01,380.96" fill="#F18F01" stroke="none"/>
<polygon points="376.51,394.45 390.00,394.45 390.00,380.96 376.51,380.96" fill="#F18F01" stroke="none"/>
<polygon points="390.00,394.45 403.49,394.45 403.49,380.96 390.00,380.96" fill="#F18F01" stroke="none"/>
<polygon points="403.49,394.45 416.99,394.45 416.99,380.96 403.49,380.96" fill="#F18F01" stroke="none"/>
<polygon points="416.99,394.45 430.48,394.45 430.48,380.96 416.99,380.96" fill="#F18F01" stroke="none"/>
<polygon points="430.48,394.45 443.97,394.45 443.97,380.96 430.48,380.96" fill="#F18F01" stroke="none"/>
<polygon points="443.97,394.45 457.47,394.45 457.47,380.96 443.97,380.96" fill="#F18F01" stroke="none"/>
<polygon points="457.47,394.45 470.96,394.45 470.96,380.96 457.47,380.96" fill="#F18F01" stroke="none"/>
<polygon points="470.96,394.45 484.45,394.45 484.45,380.96 470.96,380.96" fill="#A23B72" stroke="none"/>
<polygon points="484.45,394.45 497.95,394.45 497.95,380.96 484.45,380.96" fill="#A23B72" stroke="none"/>
<polygon points="497.95,394.45 511.44,394.45 511.44,380.96 497.95,380.96" fill="#2E86AB" stroke="none"/>
<polygon points="511.44,394.45 524.93,394.45 524.93,380.96 511.44,380.96" fill="#2E86AB" stroke="none"/>
<polygon points="524.93,394.45 538.43,394.45 538.43,380.96 524.93,380.96" fill="#2E86AB" stroke="none"/>
<polygon points="538.43,394.45 551.92,394.45 551.92,380.96 538.43,380.96" fill="#A23B72" stroke="none"/>
<polygon points="551.92,394.45 565.41,394.45 565.41,380.96 551.92,380.96" fill="#A23B72" stroke="none"/>
<polygon points="565.41,394.45 578.91,394.45 578.91,380.96 565.41,380.96" fill="#F18F01" stroke="none"/>
<polygon points="201.09,380.96 214.59,380.96 214.59,367.47 201.09,367.47" fill="#F18F01" stroke="none"/>
<polygon points="214.59,380.96 228.08,380.96 228.08,367.47 214.59,367.47" fill="#F18F01" stroke="none"/>
<polygon points="228.08,380.96 241.57,380.96 241.57,367.47 228.08,367.47" fill="#A23B72" stroke="none"/>
<polygon points="241.57,380.96 255.07,380.96 255.07,367.47 241.57,367.47" fill="#2E86AB" stroke="none"/>
<polygon points="255.07,380.96 268.56,380.96 268.56,367.47 255.07,367.47" fill="#A23B72" stroke="none"/>
<polygon points="268.56,380.96 282.05,380.96 282.05,367.47 268.56,367.47" fill="#2E86AB" stroke="none"/>
<polygon points="282.05,380.96 295.55,380.96 295.55,367.47 282.05,367.47" fill="#2E86AB" stroke="none"/>
<polygon points="295.55,380.96 309.04,380.96 309.04,367.47 295.55,367.47" fill="#A23B72" stroke="none"/>
<polygon points="309.04,380.96 322.53,380.96 322.53,367.47 309.04,367.47" fill="#A23B72" stroke="none"/>
<polygon points="322.53,380.96 336.03,380.96 336.03,367.47 322.53,367.47" fill="#F18F01" stroke="none"/>
<polygon points="336.03,380.96 349.52,380.96 349.52,367.47 336.03,367.47" fill="#F18F01" stroke="none"/>
<polygon points="349.52,380.96 363.01,380.96 363.01,367.47 349.52,367.47" fill="#F18F01" stroke="none"/>
<polygon points="363.01,380.96 376.51,380.96 376.51,367.47 363.01,367.47" fill="#C73E1D" stroke="none"/>
<polygon points="376.51,380.96 390.00,380.96 390.00,367.47 376.51,367.47" fill="#C73E1D" stroke="none"/>
<polygon points="390.00,380.96 403.49,380.96 403.49,367.47 390.00,367.47" fill="#C73E1D" stroke="none"/>
<polygon points="403.49,380.96 416.99,380.96 416.99,367.47 403.49,367.47" fill="#C73E1D" stroke="none"/>
<polygon points="416.99,380.96 430.48,380.96 430.48,367.47 416.99,367.47" fill="#C73E1D" stroke="none"/>
<polygon points="430.48,380.96 443.97,380.96 443.97,367.47 430.48,367.47" fill="#C73E1D" stroke="none"/>
<polygon points="443.97,380.96 457.47,380.96 457.47,367.47 443.97,367.47" fill="#F18F01" stroke="none"/>
<polygon points="457.47,380.96 470.96,380.96 470.96,367.47 457.47,367.47" fill="#F18F01" stroke="none"/>
<polygon points="470.96,380.96 484.45,380.96 484.45,367.47 470.96,367.47" fill="#A23B72" stroke="none"/>
<polygon points="484.45,380.96 497.95,380.96 497.95,367.47 484.45,367.47" fill="#A23B72" stroke="none"/>
<polygon points="497.95,380.96 511.44,380.96 511.44,367.47 497.95,367.47" fill="#A23B72" stroke="none"/>
<polygon points="511.44,380.96 524.93,380.96 524.93,367.47 511.44,367.47" fill="#2E86AB" stroke="none"/>
<polygon points="524.93,380.96 538.43,380.96 538.43,367.47 524.93,367.47" fill="#2E86AB" stroke="none"/>
<polygon points="538.43,380.96 551.92,380.96 551.92,367.47 538.43,367.47" fill="#A23B72" stroke="none"/>
<polygon points="551.92,380.96 565.41,380.96 565.41,367.47 551.92,367.47" fill="#2E86AB" stroke="none"/>
<polygon points="565.41,380.96 578.91,380.96 578.91,367.47 565.41,367.47" fill="#A23B72" stroke="none"/>
<polygon points="201.09,367.47 214.59,367.47 214.59,353.97 201.09,353.97" fill="#F18F01" stroke="none"/>
<polygon points="214.59,367.47 228.08,367.47 228.08,353.97 214.59,353.97" fill="#A23B72" stroke="none"/>
<polygon points="228.08,367.47 241.57,367.47 241.57,353.97 228.08,353.97" fill="#A23B72" stroke="none"/>
<polygon points="241.57,367.47 255.07,367.47 255.07,353.97 241.57,353.97" fill="#2E86AB" stroke="none"/>
<polygon points="255.07,367.47 268.56,367.47 268.56,353.97 255.07,353.97" fill="#A23B72" stroke="none"/>
<polygon points="268.56,367.47 282.05,367.47 282.05,353.97 268.56,353.97" fill="#2E86AB" stroke="none"/>
<polygon points="282.05,367.47 295.55,367.47 295.55,353.97 282.05,353.97" fill="#A23B72" stroke="none"/>
<polygon points="295.55,367.47 309.04,367.47 309.04,353.97 295.55,353.97" fill="#F18F01" stroke="none"/>
<polygon points="309.04,367.47 322.53,367.47 322.53,353.97 309.04,353.97" fill="#A23B72" stroke="none"/>
<polygon points="322.53,367.47 336.03,367.47 336.03,353.97 322.53,353.97" fill="#F18F01" stroke="none"/>
<polygon points="336.03,367.47 349.52,367.47 349.52,353.97 336.03,353.97" fill="#C73E1D" stroke="none"/>
<polygon points="349.52,367.47 363.01,367.47 363.01,353.97 349.52,353.97" fill="#C73E1D" stroke="none"/>
<polygon points="363.01,367.47 376.51,367.47 376.51,353.97 363.01,353.97" fill="#C73E1D" stroke="none"/>
<polygon points="376.51,367.47 390.00,367.47 390.00,353.97 376.51,353.97" fill="#8B0000" stroke="none"/>
<polygon points="390.00,367.47 403.49,367.47 403.49,353.97 390.00,353.97" fill="#8B0000" stroke="none"/>
<polygon points="403.49,367.47 416.99,367.47 416.99,353.97 403.49,353.97" fill="#C73E1D" stroke="none"/>
<polygon points="416.99,367.47 430.48,367.47 430.48,353.97 416.99,353.97" fill="#C73E1D" stroke="none"/>
<polygon points="430.48,367.47 443.97,367.47 443.97,353.97 430.48,353.97" fill="#8B0000" stroke="none"/>
<polygon points="443.97,367.47 457.47,367.47 457.47,353.97 443.97,353.97" fill="#C73E1D" stroke="none"/>
<polygon points="457.47,367.47 470.96,367.47 470.96,353.97 457.47,353.97" fill="#F18F01" stroke="none"/>
<polygon points="470.96,367.47 484.45,367.47 484.45,353.97 470.96,353.97" fill="#F18F01" stroke="none"/>
<polygon points="484.45,367.47 497.95,367.47 497.95,353.97 484.45,353.97" fill="#A23B72" stroke="none"/>
<polygon points="497.95,367.47 511.44,367.47 511.44,353.97 497.95,353.97" fill="#A23B72" stroke="none"/>
<polygon points="511.44,367.47 524.93,367.47 524.93,353.97 511.44,353.97" fill="#A23B72" stroke="none"/>
<polygon points="524.93,367.47 538.43,367.47 538.43,353.97 524.93,353.97" fill="#2E86AB" stroke="none"/>
<polygon points="538.43,367.47 551.92,367.47 551.92,353.97 538.43,353.97" fill="#A23B72" stroke="none"/>
<polygon points="551.92,367.47 565.41,367.47 565.41,353.97 551.92,353.97" fill="#A23B72" stroke="none"/>
<polygon points="565.41,367.47 578.91,367.47 578.91,353.97 565.41,353.97" fill="#A23B72" stroke="none"/>
<polygon points="187.60,353.97 201.09,353.97 201.09,340.48 187.60,340.48" fill="#C73E1D" stroke="none"/>
<polygon points="201.09,353.97 214.59,353.97 214.59,340.48 201.09,340.48" fill="#F18F01" stroke="none"/>
<polygon points="214.59,353.97 228.08,353.97 228.08,340.48 214.59,340.48" fill="#A23B72" stroke="none"/>
<polygon points="228.08,353.97 241.57,353.97 241.57,340.48 228.08,340.48" fill="#A23B72" stroke="none"/>
<polygon points="241.57,353.97 255.07,353.97 255.07,340.48 241.57,340.48" fill="#2E86AB" stroke="none"/>
<polygon points="255.07,353.97 268.56,353.97 268.56,340.48 255.07,340.48" fill="#2E86AB" stroke="none"/>
<polygon points="268.56,353.97 282.05,353.97 282.05,340.48 268.56,340.48" fill="#A23B72" stroke="none"/>
<polygon points="282.05,353.97 295.55,353.97 295.55,340.48 282.05,340.48" fill="#A23B72" stroke="none"/>
<polygon points="295.55,353.97 309.04,353.97 309.04,340.48 295.55,340.48" fill="#F18F01" stroke="none"/>
<polygon points="309.04,353.97 322.53,353.97 322.53,340.48 309.04,340.48" fill="#F18F01" stroke="none"/>
<polygon points="322.53,353.97 336.03,353.97 336.03,340.48 322.53,340.48" fill="#C73E1D" stroke="none"/>
<polygon points="336.03,353.97 349.52,353.97 349.52,340.48 336.03,340.48" fill="#C73E1D" stroke="none"/>
<polygon points="349.52,353.97 363.01,353.97 363.01,340.48 349.52,340.48" fill="#8B0000" stroke="none"/>
<polygon points="363.01,353.97 376.51,353.97 376.51,340.48 363.01,340.48" fill="#8B0000" stroke="none"/>
<polygon points="376.51,353.97 390.00,353.97 390.00,340.48 376.51,340.48" fill="#8B0000" stroke="none"/>
<polygon points="390.00,353.97 403.49,353.97 403.49,340.48 390.00,340.48" fill="#8B0000" stroke="none"/>
<polygon points="403.49,353.97 416.99,353.97 416.99,340.48 403.49,340.48" fill="#8B0000" stroke="none"/>
<polygon points="416.99,353.97 430.48,353.97 430.48,340.48 416.99,340.48" fill="#8B0000" stroke="none"/>
<polygon points="430.48,353.97 443.97,353.97 443.97,340.48 430.48,340.48" fill="#8B0000" stroke="none"/>
<polygon points="443.97,353.97 457.47,353.97 457.47,340.48 443.97,340.48" fill="#F18F01" stroke="none"/>
<polygon points="457.47,353.97 470.96,353.97 470.96,340.48 457.47,340.48" fill="#F18F01" stroke="none"/>
<polygon points="470.96,353.97 484.45,353.97 484.45,340.48 470.96,340.48" fill="#C73E1D" stroke="none"/>
<polygon points="484.45,353.97 497.95,353.97 497.95,340.48 484.45,340.48" fill="#F18F01" stroke="none"/>
<polygon points="497.95,353.97 511.44,353.97 511.44,340.48 497.95,340.48" fill="#A23B72" stroke="none"/>
<polygon points="511.44,353.97 524.93,353.97 524.93,340.48 511.44,340.48" fill="#A23B72" stroke="none"/>
<polygon points="524.93,353.97 538.43,353.97 538.43,340.48 524.93,340.48" fill="#A23B72" stroke="none"/>
<polygon points="538.43,353.97 551.92,353.97 551.92,340.48 538.43,340.48" fill="#2E86AB" stroke="none"/>
<polygon points="551.92,353.97 565.41,353.97 565.41,340.48 551.92,340.48" fill="#2E86AB" stroke="none"/>
<polygon points="565.41,353.97 578.91,353.97 578.91,340.48 565.41,340.48" fill="#A23B72" stroke="none"/>
<polygon points="578.91,353.97 592.40,353.97 592.40,340.48 578.91,340.48" fill="#A23B72" stroke="none"/>
<polygon points="187.60,340.48 201.09,340.48 201.09,326.99 187.60,326.99" fill="#F18F01" stroke="none"/>
<polygon points="201.09,340.48 214.59,340.48 214.59,326.99 201.09,326.99" fill="#F18F01" stroke="none"/>
<polygon points="214.59,340.48 228.08,340.48 228.08,326.99 214.59,326.99" fill="#A23B72" stroke="none"/>
<polygon points="228.08,340.48 241.57,340.48 241.57,326.99 228.08,326.99" fill="#A23B72" stroke="none"/>
<polygon points="241.57,340.48 255.07,340.48 255.07,326.99 241.57,326.99" fill="#2E86AB" stroke="none"/>
<polygon points="255.07,340.48 268.56,340.48 268.56,326.99 255.07,326.99" fill="#A23B72" stroke="none"/>
<polygon points="268.56,340.48 282.05,340.48 282.05,326.99 268.56,326.99" fill="#2E86AB" stroke="none"/>
<polygon points="282.05,340.48 295.55,340.48 295.55,326.99 282.05,326.99" fill="#A23B72" stroke="none"/>
<polygon points="295.55,340.48 309.04,340.48 309.04,326.99 295.55,326.99" fill="#F18F01" stroke="none"/>
<polygon points="309.04,340.48 322.53,340.48 322.53,326.99 309.04,326.99" fill="#C73E1D" stroke="none"/>
<polygon points="322.53,340.48 336.03,340.48 336.03,326.99 322.53,326.99" fill="#F18F01" stroke="none"/>
<polygon points="336.03,340.48 349.52,340.48 349.52,326.99 336.03,326.99" fill="#8B0000" stroke="none"/>
<polygon points="349.52,340.48 363.01,340.48 363.01,326.99 349.52,326.99" fill="#8B0000" stroke="none"/>
<polygon points="363.01,340.48 376.51,340.48 376.51,326.99 363.01,326.99" fill="#C73E1D" stroke="none"/>
<polygon points="376.51,340.48 390.00,340.48 390.00,326.99 376.51,326.99" fill="#8B0000" stroke="none"/>
<polygon points="390.00,340.48 403.49,340.48 403.49,326.99 390.00,326.99" fill="#8B0000" stroke="none"/>
<polygon points="403.49,340.48 416.99,340.48 416.99,326.99 403.49,326.99" fill="#8B0000" stroke="none"/>
<polygon points="416.99,340.48 430.48,340.48 430.48,326.99 416.99,326.99" fill="#8B0000" stroke="none"/>
<polygon points="430.48,340.48 443.97,340.48 443.97,326.99 430.48,326.99" fill="#C73E1D" stroke="none"/>
<polygon points="443.97,340.48 457.47,340.48 457.47,326.99 443.97,326.99" fill="#8B0000" stroke="none"/>
<polygon points="457.47,340.48 470.96,340.48 470.96,326.99 457.47,326.99" fill="#C73E1D" stroke="none"/>
<polygon points="470.96,340.48 484.45,340.48 484.45,326.99 470.96,326.99" fill="#C73E1D" stroke="none"/>
<polygon points="484.45,340.48 497.95,340.48 497.95,326.99 484.45,326.99" fill="#F18F01" stroke="none"/>
<polygon points="497.95,340.48 511.44,340.48 511.44,326.99 497.95,326.99" fill="#F18F01" stroke="none"/>
<polygon points="511.44,340.48 524.93,340.48 524.93,326.99 511.44,326.99" fill="#A23B72" stroke="none"/>
<polygon points="524.93,340.48 538.43,340.48 538.43,326.99 524.93,326.99" fill="#A23B72" stroke="none"/>
<polygon points="538.43,340.48 551.92,340.48 551.92,326.99 538.43,326.99" fill="#A23B72" stroke="none"/>
<polygon points="551.92,340.48 565.41,340.48 565.41,326.99 551.92,326.99" fill="#A23B72" stroke="none"/>
<polygon points="565.41,340.48 578.91,340.48 578.91,326.99 565.41,326.99" fill="#A23B72" stroke="none"/>
<polygon points="578.91,340.48 592.40,340.48 592.40,326.99 578.91,326.99" fill="#A23B72" stroke="none"/>
<polygon points="187.60,326.99 201.09,326.99 201.09,313.49 187.60,313.49" fill="#C73E1D" stroke="none"/>
<polygon points="201.09,326.99 214.59,326.99 214.59,313.49 201.09,313.49" fill="#F18F01" stroke="none"/>
<polygon points="214.59,326.99 228.08,326.99 228.08,313.49 214.59,313.49" fill="#A23B72" stroke="none"/>
<polygon points="228.08,326.99 241.57,326.99 241.57,313.49 228.08,313.49" fill="#A23B72" stroke="none"/>
<polygon points="241.57,326.99 255.07,326.99 255.07,313.49 241.57,313.49" fill="#A23B72" stroke="none"/>
<polygon points="255.07,326.99 268.56,326.99 268.56,313.49 255.07,313.49" fill="#A23B72" stroke="none"/>
<polygon points="268.56,326.99 282.05,326.99 282.05,313.49 268.56,313.49" fill="#A23B72" stroke="none"/>
<polygon points="282.05,326.99 295.55,326.99 295.55,313.49 282.05,313.49" fill="#F18F01" stroke="none"/>
<polygon points="295.55,326.99 309.04,326.99 309.04,313.49 295.55,313.49" fill="#F18F01" stroke="none"/>
<polygon points="309.04,326.99 322.53,326.99 322.53,313.49 309.04,313.49" fill="#C73E1D" stroke="none"/>
<polygon points="322.53,326.99 336.03,326.99 336.03,313.49 322.53,313.49" fill="#8B0000" stroke="none"/>
<polygon points="336.03,326.99 349.52,326.99 349.52,313.49 336.03,313.49" fill="#8B0000" stroke="none"/>
<polygon points="349.52,326.99 363.01,326.99 363.01,313.49 349.52,313.49" fill="#8B0000" stroke="none"/>
<polygon points="363.01,326.99 376.51,326.99 376.51,313.49 363.01,313.49" fill="#8B0000" stroke="none"/>
<polygon points="376.51,326.99 390.00,326.99 390.00,313.49 376.51,313.49" fill="#8B0000" stroke="none"/>
<polygon points="390.00,326.99 403.49,326.99 403.49,313.49 390.00,313.49" fill="#8B0000" stroke="none"/>
<polygon points="403.49,326.99 416.99,326.99 416.99,313.49 403.49,313.49" fill="#8B0000" stroke="none"/>
<polygon points="416.99,326.99 430.48,326.99 430.48,313.49 416.99,313.49" fill="#8B0000" stroke="none"/>
<polygon points="430.48,326.99 443.97,326.99 443.97,313.49 430.48,313.49" fill="#8B0000" stroke="none"/>
<polygon points="443.97,326.99 457.47,326.99 457.47,313.49 443.97,313.49" fill="#8B0000" stroke="none"/>
<polygon points="457.47,326.99 470.96,326.99 470.96,313.49 457.47,313.49" fill="#8B0000" stroke="none"/>
<polygon points="470.96,326.99 484.45,326.99 484.45,313.49 470.96,313.49" fill="#C73E1D" stroke="none"/>
<polygon points="484.45,326.99 497.95,326.99 497.95,313.49 484.45,313.49" fill="#F18F01" stroke="none"/>
<polygon points="497.95,326.99 511.44,326.99 511.44,313.49 497.95,313.49" fill="#A23B72" stroke="none"/>
<polygon points="511.44,326.99 524.93,326.99 524.93,313.49 511.44,313.49" fill="#2E86AB" stroke="none"/>
<polygon points="524.93,326.99 538.43,326.99 538.43,313.49 524.93,313.49" fill="#A23B72" stroke="none"/>
<polygon points="538.43,326.99 551.92,326.99 551.92,313.49 538.43,313.49" fill="#2E86AB" stroke="none"/>
<polygon points="551.92,326.99 565.41,326.99 565.41,313.49 551.92,313.49" fill="#A23B72" stroke="none"/>
<polygon points="565.41,326.99 578.91,326.99 578.91,313.49 565.41,313.49" fill="#A23B72" stroke="none"/>
<polygon points="578.91,326.99 592.40,326.99 592.40,313.49 578.91,313.49" fill="#A23B72" stroke="none"/>
<polygon points="187.60,313.49 201.09,313.49 201.09,300.00 187.60,300.00" fill="#C73E1D" stroke="none"/>
<polygon points="201.09,313.49 214.59,313.49 214.59,300.00 201.09,300.00" fill="#A23B72" stroke="none"/>
<polygon points="214.59,313.49 228.08,313.49 228.08,300.00 214.59,300.00" fill="#A23B72" stroke="none"/>
<polygon points="228.08,313.49 241.57,313.49 241.57,300.00 228.08,300.00" fill="#A23B72" stroke="none"/>
<polygon points="241.57,313.49 255.07,313.49 255.07,300.00 241.57,300.00" fill="#2E86AB" stroke="none"/>
<polygon points="255.07,313.49 268.56,313.49 268.56,300.00 255.07,300.00" fill="#2E86AB" stroke="none"/>
<polygon points="268.56,313.49 282.05,313.49 282.05,300.00 268.56,300.00" fill="#A23B72" stroke="none"/>
<polygon points="282.05,313.49 295.55,313.49 295.55,300.00 282.05,300.00" fill="#F18F01" stroke="none"/>
<polygon points="295.55,313.49 309.04,313.49 309.04,300.00 295.55,300.00" fill="#F18F01" stroke="none"/>
<polygon points="309.04,313.49 322.53,313.49 322.53,300.00 309.04,300.00" fill="#C73E1D" stroke="none"/>
<polygon points="322.53,313.49 336.03,313.49 336.03,300.00 322.53,300.00" fill="#8B0000" stroke="none"/>
<polygon points="336.03,313.49 349.52,313.49 349.52,300.00 336.03,300.00" fill="#8B0000" stroke="none"/>
<polygon points="349.52,313.49 363.01,313.49 363.01,300.00 349.52,300.00" fill="#8B0000" stroke="none"/>
<polygon points="363.01,313.49 376.51,313.49 376.51,300.00 363.01,300.00" fill="#8B0000" stroke="none"/>
<polygon points="376.51,313.49 390.00,313.49 390.00,300.00 376.51,300.00" fill="#8B0000" stroke="none"/>
<polygon points="390.00,313.49 403.49,313.49 403.49,300.00 390.00,300.00" fill="#C73E1D" stroke="none"/>
<polygon points="403.49,313.49 416.99,313.49 416.99,300.00 403.49,300.00" fill="#C73E1D" stroke="none"/>
<polygon points="416.99,313.49 430.48,313.49 430.48,300.00 416.99,300.00" fill="#8B0000" stroke="none"/>
<polygon points="430.48,313.49 443.97,313.49 443.97,300.00 430.48,300.00" fill="#8B0000" stroke="none"/>
<polygon points="443.97,313.49 457.47,313.49 457.47,300.00 443.97,300.00" fill="#8B0000" stroke="none"/>
<polygon points="457.47,313.49 470.96,313.49 470.96,300.00 457.47,300.00" fill="#C73E1D" stroke="none"/>
<polygon points="470.96,313.49 484.45,313.49 484.45,300.00 470.96,300.00" fill="#C73E1D" stroke="none"/>
<polygon points="484.45,313.49 497.95,313.49 497.95,300.00 484.45,300.00" fill="#C73E1D" stroke="none"/>
<polygon points="497.95,313.49 511.44,313.49 511.44,300.00 497.95,300.00" fill="#F18F01" stroke="none"/>
<polygon points="511.44,313.49 524.93,313.49 524.93,300.00 511.44,300.00" fill="#F18F01" stroke="none"/>
<polygon points="524.93,313.49 538.43,313.49 538.43,300.00 524.93,300.00" fill="#2E86AB" stroke="none"/>
<polygon points="538.43,313.49 551.92,313.49 551.92,300.00 538.43,300.00" fill="#A23B72" stroke="none"/>
<polygon points="551.92,313.49 565.41,313.49 565.41,300.00 551.92,300.00" fill="#2E86AB" stroke="none"/>
<polygon points="565.41,313.49 578.91,313.49 578.91,300.00 565.41,300.00" fill="#A23B72" stroke="none"/>
<polygon points="578.91,313.49 592.40,313.49 592.40,300.00 578.91,300.00" fill="#F18F01" stroke="none"/>
<polygon points="187.60,300.00 201.09,300.00 201.09,286.51 187.60,286.51" fill="#C73E1D" stroke="none"/>
<polygon points="201.09,300.00 214.59,300.00 214.59,286.51 201.09,286.51" fill="#F18F01" stroke="none"/>
<polygon points="214.59,300.00 228.08,300.00 228.08,286.51 214.59,286.51" fill="#A23B72" stroke="none"/>
<polygon points="228.08,300.00 241.57,300.00 241.57,286.51 228.08,286.51" fill="#2E86AB" stroke="none"/>
<polygon points="241.57,300.00 255.07,300.00 255.07,286.51 241.57,286.51" fill="#2E86AB" stroke="none"/>
<polygon points="255.07,300.00 268.56,300.00 268.56,286.51 255.07,286.51" fill="#2E86AB" stroke="none"/>
<polygon points="268.56,300.00 282.05,300.00 282.05,286.51 268.56,286.51" fill="#A23B72" stroke="none"/>
<polygon points="282.05,300.00 295.55,300.00 295.55,286.51 282.05,286.51" fill="#F18F01" stroke="none"/>
<polygon points="295.55,300.00 309.04,300.00 309.04,286.51 295.55,286.51" fill="#F18F01" stroke="none"/>
<polygon points="309.04,300.00 322.53,300.00 322.53,286.51 309.04,286.51" fill="#C73E1D" stroke="none"/>
<polygon points="322.53,300.00 336.03,300.00 336.03,286.51 322.53,286.51" fill="#C73E1D" stroke="none"/>
<polygon points="336.03,300.00 349.52,300.00 349.52,286.51 336.03,286.51" fill="#8B0000" stroke="none"/>
<polygon points="349.52,300.00 363.01,300.00 363.01,286.51 349.52,286.51" fill="#8B0000" stroke="none"/>
<polygon points="363.01,300.00 376.51,300.00 376.51,286.51 363.01,286.51" fill="#8B0000" stroke="none"/>
<polygon points="376.51,300.00 390.00,300.00 390.00,286.51 376.51,286.51" fill="#C73E1D" stroke="none"/>
<polygon points="390.00,300.00 403.49,300.00 403.49,286.51 390.00,286.51" fill="#F18F01" stroke="none"/>
<polygon points="403.49,300.00 416.99,300.00 416.99,286.51 403.49,286.51" fill="#C73E1D" stroke="none"/>
<polygon points="416.99,300.00 430.48,300.00 430.48,286.51 416.99,286.51" fill="#C73E1D" stroke="none"/>
<polygon points="430.48,300.00 443.97,300.00 443.97,286.51 430.48,286.51" fill="#8B0000" stroke="none"/>
<polygon points="443.97,300.00 457.47,300.00 457.47,286.51 443.97,286.51" fill="#8B0000" stroke="none"/>
<polygon points="457.47,300.00 470.96,300.00 470.96,286.51 457.47,286.51" fill="#8B0000" stroke="none"/>
<polygon points="470.96,300.00 484.45,300.00 484.45,286.51 470.96,286.51" fill="#8B0000" stroke="none"/>
<polygon points="484.45,300.00 497.95,300.00 497.95,286.51 484.45,286.51" fill="#C73E1D" stroke="none"/>
<polygon points="497.95,300.00 511.44,300.00 511.44,286.51 497.95,286.51" fill="#A23B72" stroke="none"/>
<polygon points="511.44,300.00 524.93,300.00 524.93,286.51 511.44,286.51" fill="#A23B72" stroke="none"/>
<polygon points="524.93,300.00 538.43,300.00 538.43,286.51 524.93,286.51" fill="#A23B72" stroke="none"/>
<polygon points="538.43,300.00 551.92,300.00 551.92,286.51 538.43,286.51" fill="#2E86AB" stroke="none"/>
<polygon points="551.92,300.00 565.41,300.00 565.41,286.51 551.92,286.51" fill="#2E86AB" stroke="none"/>
<polygon points="565.41,300.00 578.91,300.00 578.91,286.51 565.41,286.51" fill="#A23B72" stroke="none"/>
<polygon points="578.91,300.00 592.40,300.00 592.40,286.51 578.91,286.51" fill="#A23B72" stroke="none"/>
<polygon points="187.60,286.51 201.09,286.51 201.09,273.01 187.60,273.01" fill="#F18F01" stroke="none"/>
<polygon points="201.09,286.51 214.59,286.51 214.59,273.01 201.09,273.01" fill="#F18F01" stroke="none"/>
<polygon points="214.59,286.51 228.08,286.51 228.08,273.01 214.59,273.01" fill="#A23B72" stroke="none"/>
<polygon points="228.08,286.51 241.57,286.51 241.57,273.01 228.08,273.01" fill="#A23B72" stroke="none"/>
<polygon points="241.57,286.51 255.07,286.51 255.07,273.01 241.57,273.01" fill="#2E86AB" stroke="none"/>
<polygon points="255.07,286.51 268.56,286.51 268.56,273.01 255.07,273.01" fill="#A23B72" stroke="none"/>
<polygon points="268.56,286.51 282.05,286.51 282.05,273.01 268.56,273.01" fill="#A23B72" stroke="none"/>
<polygon points="282.05,286.51 295.55,286.51 295.55,273.01 282.05,273.01" fill="#A23B72" stroke="none"/>
<polygon points="295.55,286.51 309.04,286.51 309.04,273.01 295.55,273.01" fill="#C73E1D" stroke="none"/>
<polygon points="309.04,286.51 322.53,286.51 322.53,273.01 309.04,273.01" fill="#8B0000" stroke="none"/>
<polygon points="322.53,286.51 336.03,286.51 336.03,273.01 322.53,273.01" fill="#8B0000" stroke="none"/>
<polygon points="336.03,286.51 349.52,286.51 349.52,273.01 336.03,273.01" fill="#8B0000" stroke="none"/>
<polygon points="349.52,286.51 363.01,286.51 363.01,273.01 349.52,273.01" fill="#8B0000" stroke="none"/>
<polygon points="363.01,286.51 376.51,286.51 376.51,273.01 363.01,273.01" fill="#8B0000" stroke="none"/>
<polygon points="376.51,286.51 390.00,286.51 390.00,273.01 376.51,273.01" fill="#C73E1D" stroke="none"/>
<polygon points="390.00,286.51 403.49,286.51 403.49,273.01 390.00,273.01" fill="#C73E1D" stroke="none"/>
<polygon points="403.49,286.51 416.99,286.51 416.99,273.01 403.49,273.01" fill="#C73E1D" stroke="none"/>
<polygon points="416.99,286.51 430.48,286.51 430.48,273.01 416.99,273.01" fill="#8B0000" stroke="none"/>
<polygon points="430.48,286.51 443.97,286.51 443.97,273.01 430.48,273.01" fill="#8B0000" stroke="none"/>
<polygon points="443.97,286.51 457.47,286.51 457.47,273.01 443.97,273.01" fill="#8B0000" stroke="none"/>
<polygon points="457.47,286.51 470.96,286.51 470.96,273.01 457.47,273.01" fill="#C73E1D" stroke="none"/>
<polygon points="470.96,286.51 484.45,286.51 484.45,273.01 470.96,273.01" fill="#C73E1D" stroke="none"/>
<polygon points="484.45,286.51 497.95,286.51 497.95,273.01 484.45,273.01" fill="#F18F01" stroke="none"/>
<polygon points="497.95,286.51 511.44,286.51 511.44,273.01 497.95,273.01" fill="#F18F01" stroke="none"/>
<polygon points="511.44,286.51 524.93,286.51 524.93,273.01 511.44,273.01" fill="#A23B72" stroke="none"/>
<polygon points="524.93,286.51 538.43,286.51 538.43,273.01 524.93,273.01" fill="#2E86AB" stroke="none"/>
<polygon points="538.43,286.51 551.92,286.51 551.92,273.01 538.43,273.01" fill="#2E86AB" stroke="none"/>
<polygon points="551.92,286.51 565.41,286.51 565.41,273.01 551.92,273.01" fill="#2E86AB" stroke="none"/>
<polygon points="565.41,286.51 578.91,286.51 578.91,273.01 565.41,273.01" fill="#A23B72" stroke="none"/>
<polygon points="578.91,286.51 592.40,286.51 592.40,273.01 578.91,273.01" fill="#F18F01" stroke="none"/>
<polygon points="187.60,273.01 201.09,273.01 201.09,259.52 187.60,259.52" fill="#F18F01" stroke="none"/>
<polygon points="201.09,273.01 214.59,273.01 214.59,259.52 201.09,259.52" fill="#F18F01" stroke="none"/>
<polygon points="214.59,273.01 228.08,273.01 228.08,259.52 214.59,259.52" fill="#A23B72" stroke="none"/>
<polygon points="228.08,273.01 241.57,273.01 241.57,259.52 228.08,259.52" fill="#2E86AB" stroke="none"/>
<polygon points="241.57,273.01 255.07,273.01 255.07,259.52 241.57,259.52" fill="#A23B72" stroke="none"/>
<polygon points="255.07,273.01 268.56,273.01 268.56,259.52 255.07,259.52" fill="#2E86AB" stroke="none"/>
<polygon points="268.56,273.01 282.05,273.01 282.05,259.52 268.56,259.52" fill="#A23B72" stroke="none"/>
<polygon points="282.05,273.01 295.55,273.01 295.55,259.52 282.05,259.52" fill="#F18F01" stroke="none"/>
<polygon points="295.55,273.01 309.04,273.01 309.04,259.52 295.55,259.52" fill="#F18F01" stroke="none"/>
<polygon points="309.04,273.01 322.53,273.01 322.53,259.52 309.04,259.52" fill="#C73E1D" stroke="none"/>
<polygon points="322.53,273.01 336.03,273.01 336.03,259.52 322.53,259.52" fill="#C73E1D" stroke="none"/>
<polygon points="336.03,273.01 349.52,273.01 349.52,259.52 336.03,259.52" fill="#C73E1D" stroke="none"/>
<polygon points="349.52,273.01 363.01,273.01 363.01,259.52 349.52,259.52" fill="#8B0000" stroke="none"/>
<polygon points="363.01,273.01 376.51,273.01 376.51,259.52 363.01,259.52" fill="#8B0000" stroke="none"/>
<polygon points="376.51,273.01 390.00,273.01 390.00,259.52 376.51,259.52" fill="#C73E1D" stroke="none"/>
<polygon points="390.00,273.01 403.49,273.01 403.49,259.52 390.00,259.52" fill="#8B0000" stroke="none"/>
<polygon points="403.49,273.01 416.99,273.01 416.99,259.52 403.49,259.52" fill="#8B0000" stroke="none"/>
<polygon points="416.99,273.01 430.48,273.01 430.48,259.52 416.99,259.52" fill="#8B0000" stroke="none"/>
<polygon points="430.48,273.01 443.97,273.01 443.97,259.52 430.48,259.52" fill="#8B0000" stroke="none"/>
<polygon points="443.97,273.01 457.47,273.01 457.47,259.52 443.97,259.52" fill="#8B0000" stroke="none"/>
<polygon points="457.47,273.01 470.96,273.01 470.96,259.52 457.47,259.52" fill="#C73E1D" stroke="none"/>
<polygon points="470.96,273.01 484.45,273.01 484.45,259.52 470.96,259.52" fill="#C73E1D" stroke="none"/>
<polygon points="484.45,273.01 497.95,273.01 497.95,259.52 484.45,259.52" fill="#C73E1D" stroke="none"/>
<polygon points="497.95,273.01 511.44,273.01 511.44,259.52 497.95,259.52" fill="#A23B72" stroke="none"/>
<polygon points="511.44,273.01 524.93,273.01 524.93,259.52 511.44,259.52" fill="#A23B72" stroke="none"/>
<polygon points="524.93,273.01 538.43,273.01 538.43,259.52 524.93,259.52" fill="#A23B72" stroke="none"/>
<polygon points="538.43,273.01 551.92,273.01 551.92,259.52 538.43,259.52" fill="#2E86AB" stroke="none"/>
<polygon points="551.92,273.01 565.41,273.01 565.41,259.52 551.92,259.52" fill="#A23B72" stroke="none"/>
<polygon points="565.41,273.01 578.91,273.01 578.91,259.52 565.41,259.52" fill="#A23B72" stroke="none"/>
<polygon points="578.91,273.01 592.40,273.01 592.40,259.52 578.91,259.52" fill="#A23B72" stroke="none"/>
<polygon points="187.60,259.52 201.09,259.52 201.09,246.03 187.60,246.03" fill="#C73E1D" stroke="none"/>
<polygon points="201.09,259.52 214.59,259.52 214.59,246.03 201.09,246.03" fill="#F18F01" stroke="none"/>
<polygon points="214.59,259.52 228.08,259.52 228.08,246.03 214.59,246.03" fill="#A23B72" stroke="none"/>
<polygon points="228.08,259.52 241.57,259.52 241.57,246.03 228.08,246.03" fill="#A23B72" stroke="none"/>
<polygon points="241.57,259.52 255.07,259.52 255.07,246.03 241.57,246.03" fill="#A23B72" stroke="none"/>
<polygon points="255.07,259.52 268.56,259.52 268.56,246.03 255.07,246.03" fill="#A23B72" stroke="none"/>
<polygon points="268.56,259.52 282.05,259.52 282.05,246.03 268.56,246.03" fill="#A23B72" stroke="none"/>
<polygon points="282.05,259.52 295.55,259.52 295.55,246.03 282.05,246.03" fill="#A23B72" stroke="none"/>
<polygon points="295.55,259.52 309.04,259.52 309.04,246.03 295.55,246.03" fill="#F18F01" stroke="none"/>
<polygon points="309.04,259.52 322.53,259.52 322.53,246.03 309.04,246.03" fill="#C73E1D" stroke="none"/>
<polygon points="322.53,259.52 336.03,259.52 336.03,246.03 322.53,246.03" fill="#8B0000" stroke="none"/>
<polygon points="336.03,259.52 349.52,259.52 349.52,246.03 336.03,246.03" fill="#C73E1D" stroke="none"/>
<polygon points="349.52,259.52 363.01,259.52 363.01,246.03 349.52,246.03" fill="#8B0000" stroke="none"/>
<polygon points="363.01,259.52 376.51,259.52 376.51,246.03 363.01,246.03" fill="#8B0000" stroke="none"/>
<polygon points="376.51,259.52 390.00,259.52 390.00,246.03 376.51,246.03" fill="#8B0000" stroke="none"/>
<polygon points="390.00,259.52 403.49,259.52 403.49,246.03 390.00,246.03" fill="#C73E1D" stroke="none"/>
<polygon points="403.49,259.52 416.99,259.52 416.99,246.03 403.49,246.03" fill="#8B0000" stroke="none"/>
<polygon points="416.99,259.52 430.48,259.52 430.48,246.03 416.99,246.03" fill="#8B0000" stroke="none"/>
<polygon points="430.48,259.52 443.97,259.52 443.97,246.03 430.48,246.03" fill="#8B0000" stroke="none"/>
<polygon points="443.97,259.52 457.47,259.52 457.47,246.03 443.97,246.03" fill="#8B0000" stroke="none"/>
<polygon points="457.47,259.52 470.96,259.52 470.96,246.03 457.47,246.03" fill="#C73E1D" stroke="none"/>
<polygon points="470.96,259.52 484.45,259.52 484.45,246.03 470.96,246.03" fill="#C73E1D" stroke="none"/>
<polygon points="484.45,259.52 497.95,259.52 497.95,246.03 484.45,246.03" fill="#F18F01" stroke="none"/>
<polygon points="497.95,259.52 511.44,259.52 511.44,246.03 497.95,246.03" fill="#F18F01" stroke="none"/>
<polygon points="511.44,259.52 524.93,259.52 524.93,246.03 511.44,246.03" fill="#A23B72" stroke="none"/>
<polygon points="524.93,259.52 538.43,259.52 538.43,246.03 524.93,246.03" fill="#A23B72" stroke="none"/>
<polygon points="538.43,259.52 551.92,259.52 551.92,246.03 538.43,246.03" fill="#A23B72" stroke="none"/>
<polygon points="551.92,259.52 565.41,259.52 565.41,246.03 551.92,246.03" fill="#2E86AB" stroke="none"/>
<polygon points="565.41,259.52 578.91,259.52 578.91,246.03 565.41,246.03" fill="#A23B72" stroke="none"/>
<polygon points="578.91,259.52 592.40,259.52 592.40,246.03 578.91,246.03" fill="#F18F01" stroke="none"/>
<polygon points="201.09,246.03 214.59,246.03 214.59,232.53 201.09,232.53" fill="#F18F01" stroke="none"/>
<polygon points="214.59,246.03 228.08,246.03 228.08,232.53 214.59,232.53" fill="#A23B72" stroke="none"/>
<polygon points="228.08,246.03 241.57,246.03 241.57,232.53 228.08,232.53" fill="#2E86AB" stroke="none"/>
<polygon points="241.57,246.03 255.07,246.03 255.07,232.53 241.57,232.53" fill="#A23B72" stroke="none"/>
<polygon points="255.07,246.03 268.56,246.03 268.56,232.53 255.07,232.53" fill="#A23B72" stroke="none"/>
<polygon points="268.56,246.03 282.05,246.03 282.05,232.53 268.56,232.53" fill="#A23B72" stroke="none"/>
<polygon points="282.05,246.03 295.55,246.03 295.55,232.53 282.05,232.53" fill="#A23B72" stroke="none"/>
<polygon points="295.55,246.03 309.04,246.03 309.04,232.53 295.55,232.53" fill="#F18F01" stroke="none"/>
<polygon points="309.04,246.03 322.53,246.03 322.53,232.53 309.04,232.53" fill="#F18F01" stroke="none"/>
<polygon points="322.53,246.03 336.03,246.03 336.03,232.53 322.53,232.53" fill="#C73E1D" stroke="none"/>
<polygon points="336.03,246.03 349.52,246.03 349.52,232.53 336.03,232.53" fill="#8B0000" stroke="none"/>
<polygon points="349.52,246.03 363.01,246.03 363.01,232.53 349.52,232.53" fill="#8B0000" stroke="none"/>
<polygon points="363.01,246.03 376.51,246.03 376.51,232.53 363.01,232.53" fill="#C73E1D" stroke="none"/>
<polygon points="376.51,246.03 390.00,246.03 390.00,232.53 376.51,232.53" fill="#8B0000" stroke="none"/>
<polygon points="390.00,246.03 403.49,246.03 403.49,232.53 390.00,232.53" fill="#8B0000" stroke="none"/>
<polygon points="403.49,246.03 416.99,246.03 416.99,232.53 403.49,232.53" fill="#8B0000" stroke="none"/>
<polygon points="416.99,246.03 430.48,246.03 430.48,232.53 416.99,232.53" fill="#8B0000" stroke="none"/>
<polygon points="430.48,246.03 443.97,246.03 443.97,232.53 430.48,232.53" fill="#8B0000" stroke="none"/>
<polygon points="443.97,246.03 457.47,246.03 457.47,232.53 443.97,232.53" fill="#C73E1D" stroke="none"/>
<polygon points="457.47,246.03 470.96,246.03 470.96,232.53 457.47,232.53" fill="#8B0000" stroke="none"/>
<polygon points="470.96,246.03 484.45,246.03 484.45,232.53 470.96,232.53" fill="#F18F01" stroke="none"/>
<polygon points="484.45,246.03 497.95,246.03 497.95,232.53 484.45,232.53" fill="#F18F01" stroke="none"/>
<polygon points="497.95,246.03 511.44,246.03 511.44,232.53 497.95,232.53" fill="#A23B72" stroke="none"/>
<polygon points="511.44,246.03 524.93,246.03 524.93,232.53 511.44,232.53" fill="#2E86AB" stroke="none"/>
<polygon points="524.93,246.03 538.43,246.03 538.43,232.53 524.93,232.53" fill="#A23B72" stroke="none"/>
<polygon points="538.43,246.03 551.92,246.03 551.92,232.53 538.43,232.53" fill="#2E86AB" stroke="none"/>
<polygon points="551.92,246.03 565.41,246.03 565.41,232.53 551.92,232.53" fill="#A23B72" stroke="none"/>
<polygon points="565.41,246.03 578.91,246.03 578.91,232.53 565.41,232.53" fill="#A23B72" stroke="none"/>
<polygon points="201.09,232.53 214.59,232.53 214.59,219.04 201.09,219.04" fill="#C73E1D" stroke="none"/>
<polygon points="214.59,232.53 228.08,232.53 228.08,219.04 214.59,219.04" fill="#A23B72" stroke="none"/>
<polygon points="228.08,232.53 241.57,232.53 241.57,219.04 228.08,219.04" fill="#A23B72" stroke="none"/>
<polygon points="241.57,232.53 255.07,232.53 255.07,219.04 241.57,219.04" fill="#2E86AB" stroke="none"/>
<polygon points="255.07,232.53 268.56,232.53 268.56,219.04 255.07,219.04" fill="#2E86AB" stroke="none"/>
<polygon points="268.56,232.53 282.05,232.53 282.05,219.04 268.56,219.04" fill="#2E86AB" stroke="none"/>
<polygon points="282.05,232.53 295.55,232.53 295.55,219.04 282.05,219.04" fill="#A23B72" stroke="none"/>
<polygon points="295.55,232.53 309.04,232.53 309.04,219.04 295.55,219.04" fill="#F18F01" stroke="none"/>
<polygon points="309.04,232.53 322.53,232.53 322.53,219.04 309.04,219.04" fill="#F18F01" stroke="none"/>
<polygon points="322.53,232.53 336.03,232.53 336.03,219.04 322.53,219.04" fill="#C73E1D" stroke="none"/>
<polygon points="336.03,232.53 349.52,232.53 349.52,219.04 336.03,219.04" fill="#C73E1D" stroke="none"/>
<polygon points="349.52,232.53 363.01,232.53 363.01,219.04 349.52,219.04" fill="#C73E1D" stroke="none"/>
<polygon points="363.01,232.53 376.51,232.53 376.51,219.04 363.01,219.04" fill="#8B0000" stroke="none"/>
<polygon points="376.51,232.53 390.00,232.53 390.00,219.04 376.51,219.04" fill="#C73E1D" stroke="none"/>
<polygon points="390.00,232.53 403.49,232.53 403.49,219.04 390.00,219.04" fill="#8B0000" stroke="none"/>
<polygon points="403.49,232.53 416.99,232.53 416.99,219.04 403.49,219.04" fill="#8B0000" stroke="none"/>
<polygon points="416.99,232.53 430.48,232.53 430.48,219.04 416.99,219.04" fill="#C73E1D" stroke="none"/>
<polygon points="430.48,232.53 443.97,232.53 443.97,219.04 430.48,219.04" fill="#8B0000" stroke="none"/>
<polygon points="443.97,232.53 457.47,232.53 457.47,219.04 443.97,219.04" fill="#C73E1D" stroke="none"/>
<polygon points="457.47,232.53 470.96,232.53 470.96,219.04 457.47,219.04" fill="#F18F01" stroke="none"/>
<polygon points="470.96,232.53 484.45,232.53 484.45,219.04 470.96,219.04" fill="#F18F01" stroke="none"/>
<polygon points="484.45,232.53 497.95,232.53 497.95,219.04 484.45,219.04" fill="#A23B72" stroke="none"/>
<polygon points="497.95,232.53 511.44,232.53 511.44,219.04 497.95,219.04" fill="#A23B72" stroke="none"/>
<polygon points="511.44,232.53 524.93,232.53 524.93,219.04 511.44,219.04" fill="#2E86AB" stroke="none"/>
<polygon points="524.93,232.53 538.43,232.53 538.43,219.04 524.93,219.04" fill="#2E86AB" stroke="none"/>
<polygon points="538.43,232.53 551.92,232.53 551.92,219.04 538.43,219.04" fill="#2E86AB" stroke="none"/>
<polygon points="551.92,232.53 565.41,232.53 565.41,219.04 551.92,219.04" fill="#A23B72" stroke="none"/>
<polygon points="565.41,232.53 578.91,232.53 578.91,219.04 565.41,219.04" fill="#F18F01" stroke="none"/>
<polygon points="201.09,219.04 214.59,219.04 214.59,205.55 201.09,205.55" fill="#C73E1D" stroke="none"/>
<polygon points="214.59,219.04 228.08,219.04 228.08,205.55 214.59,205.55" fill="#F18F01" stroke="none"/>
<polygon points="228.08,219.04 241.57,219.04 241.57,205.55 228.08,205.55" fill="#A23B72" stroke="none"/>
<polygon points="241.57,219.04 255.07,219.04 255.07,205.55 241.57,205.55" fill="#A23B72" stroke="none"/>
<polygon points="255.07,219.04 268.56,219.04 268.56,205.55 255.07,205.55" fill="#A23B72" stroke="none"/>
<polygon points="268.56,219.04 282.05,219.04 282.05,205.55 268.56,205.55" fill="#2E86AB" stroke="none"/>
<polygon points="282.05,219.04 295.55,219.04 295.55,205.55 282.05,205.55" fill="#A23B72" stroke="none"/>
<polygon points="295.55,219.04 309.04,219.04 309.04,205.55 295.55,205.55" fill="#A23B72" stroke="none"/>
<polygon points="309.04,219.04 322.53,219.04 322.53,205.55 309.04,205.55" fill="#F18F01" stroke="none"/>
<polygon points="322.53,219.04 336.03,219.04 336.03,205.55 322.53,205.55" fill="#F18F01" stroke="none"/>
<polygon points="336.03,219.04 349.52,219.04 349.52,205.55 336.03,205.55" fill="#F18F01" stroke="none"/>
<polygon points="349.52,219.04 363.01,219.04 363.01,205.55 349.52,205.55" fill="#C73E1D" stroke="none"/>
<polygon points="363.01,219.04 376.51,219.04 376.51,205.55 363.01,205.55" fill="#C73E1D" stroke="none"/>
<polygon points="376.51,219.04 390.00,219.04 390.00,205.55 376.51,205.55" fill="#C73E1D" stroke="none"/>
<polygon points="390.00,219.04 403.49,219.04 403.49,205.55 390.00,205.55" fill="#C73E1D" stroke="none"/>
<polygon points="403.49,219.04 416.99,219.04 416.99,205.55 403.49,205.55" fill="#C73E1D" stroke="none"/>
<polygon points="416.99,219.04 430.48,219.04 430.48,205.55 416.99,205.55" fill="#C73E1D" stroke="none"/>
<polygon points="430.48,219.04 443.97,219.04 443.97,205.55 430.48,205.55" fill="#C73E1D" stroke="none"/>
<polygon points="443.97,219.04 457.47,219.04 457.47,205.55 443.97,205.55" fill="#C73E1D" stroke="none"/>
<polygon points="457.47,219.04 470.96,219.04 470.96,205.55 457.47,205.55" fill="#F18F01" stroke="none"/>
<polygon points="470.96,219.04 484.45,219.04 484.45,205.55 470.96,205.55" fill="#A23B72" stroke="none"/>
<polygon points="484.45,219.04 497.95,219.04 497.95,205.55 484.45,205.55" fill="#A23B72" stroke="none"/>
<polygon points="497.95,219.04 511.44,219.04 511.44,205.55 497.95,205.55" fill="#A23B72" stroke="none"/>
<polygon points="511.44,219.04 524.93,219.04 524.93,205.55 511.44,205.55" fill="#A23B72" stroke="none"/>
<polygon points="524.93,219.04 538.43,219.04 538.43,205.55 524.93,205.55" fill="#2E86AB" stroke="none"/>
<polygon points="538.43,219.04 551.92,219.04 551.92,205.55 538.43,205.55" fill="#2E86AB" stroke="none"/>
<polygon points="551.92,219.04 565.41,219.04 565.41,205.55 551.92,205.55" fill="#A23B72" stroke="none"/>
<polygon points="565.41,219.04 578.91,219.04 578.91,205.55 565.41,205.55" fill="#F18F01" stroke="none"/>
<polygon points="214.59,205.55 228.08,205.55 228.08,192.05 214.59,192.05" fill="#F18F01" stroke="none"/>
<polygon points="228.08,205.55 241.57,205.55 241.57,192.05 228.08,192.05" fill="#F18F01" stroke="none"/>
<polygon points="241.57,205.55 255.07,205.55 255.07,192.05 241.57,192.05" fill="#A23B72" stroke="none"/>
<polygon points="255.07,205.55 268.56,205.55 268.56,192.05 255.07,192.05" fill="#2E86AB" stroke="none"/>
<polygon points="268.56,205.55 282.05,205.55 282.05,192.05 268.56,192.05" fill="#2E86AB" stroke="none"/>
<polygon points="282.05,205.55 295.55,205.55 295.55,192.05 282.05,192.05" fill="#A23B72" stroke="none"/>
<polygon points="295.55,205.55 309.04,205.55 309.04,192.05 295.55,192.05" fill="#A23B72" stroke="none"/>
<polygon points="309.04,205.55 322.53,205.55 322.53,192.05 309.04,192.05" fill="#A23B72" stroke="none"/>
<polygon points="322.53,205.55 336.03,205.55 336.03,192.05 322.53,192.05" fill="#F18F01" stroke="none"/>
<polygon points="336.03,205.55 349.52,205.55 349.52,192.05 336.03,192.05" fill="#F18F01" stroke="none"/>
<polygon points="349.52,205.55 363.01,205.55 363.01,192.05 349.52,192.05" fill="#F18F01" stroke="none"/>
<polygon points="363.01,205.55 376.51,205.55 376.51,192.05 363.01,192.05" fill="#F18F01" stroke="none"/>
<polygon points="376.51,205.55 390.00,205.55 390.00,192.05 376.51,192.05" fill="#F18F01" stroke="none"/>
<polygon points="390.00,205.55 403.49,205.55 403.49,192.05 390.00,192.05" fill="#F18F01" stroke="none"/>
<polygon points="403.49,205.55 416.99,205.55 416.99,192.05 403.49,192.05" fill="#F18F01" stroke="none"/>
<polygon points="416.99,205.55 430.48,205.55 430.48,192.05 416.99,192.05" fill="#F18F01" stroke="none"/>
<polygon points="430.48,205.55 443.97,205.55 443.97,192.05 430.48,192.05" fill="#F18F01" stroke="none"/>
<polygon points="443.97,205.55 457.47,205.55 457.47,192.05 443.97,192.05" fill="#A23B72" stroke="none"/>
<polygon points="457.47,205.55 470.96,205.55 470.96,192.05 457.47,192.05" fill="#A23B72" stroke="none"/>
<polygon points="470.96,205.55 484.45,205.55 484.45,192.05 470.96,192.05" fill="#A23B72" stroke="none"/>
<polygon points="484.45,205.55 497.95,205.55 497.95,192.05 484.45,192.05" fill="#2E86AB" stroke="none"/>
<polygon points="497.95,205.55 511.44,205.55 511.44,192.05 497.95,192.05" fill="#A23B72" stroke="none"/>
<polygon points="511.44,205.55 524.93,205.55 524.93,192.05 511.44,192.05" fill="#A23B72" stroke="none"/>
<polygon points="524.93,205.55 538.43,205.55 538.43,192.05 524.93,192.05" fill="#A23B72" stroke="none"/>
<polygon points="538.43,205.55 551.92,205.55 551.92,192.05 538.43,192.05" fill="#A23B72" stroke="none"/>
<polygon points="551.92,205.55 565.41,205.55 565.41,192.05 551.92,192.05" fill="#A23B72" stroke="none"/>
<polygon points="228.08,192.05 241.57,192.05 241.57,178.56 228.08,178.56" fill="#F18F01" stroke="none"/>
<polygon points="241.57,192.05 255.07,192.05 255.07,178.56 241.57,178.56" fill="#F18F01" stroke="none"/>
<polygon points="255.07,192.05 268.56,192.05 268.56,178.56 255.07,178.56" fill="#A23B72" stroke="none"/>
<polygon points="268.56,192.05 282.05,192.05 282.05,178.56 268.56,178.56" fill="#2E86AB" stroke="none"/>
<polygon points="282.05,192.05 295.55,192.05 295.55,178.56 282.05,178.56" fill="#2E86AB" stroke="none"/>
<polygon points="295.55,192.05 309.04,192.05 309.04,178.56 295.55,178.56" fill="#2E86AB" stroke="none"/>
<polygon points="309.04,192.05 322.53,192.05 322.53,178.56 309.04,178.56" fill="#A23B72" stroke="none"/>
<polygon points="322.53,192.05 336.03,192.05 336.03,178.56 322.53,178.56" fill="#A23B72" stroke="none"/>
<polygon points="336.03,192.05 349.52,192.05 349.52,178.56 336.03,178.56" fill="#A23B72" stroke="none"/>
<polygon points="349.52,192.05 363.01,192.05 363.01,178.56 349.52,178.56" fill="#A23B72" stroke="none"/>
<polygon points="363.01,192.05 376.51,192.05 376.51,178.56 363.01,178.56" fill="#F18F01" stroke="none"/>
<polygon points="376.51,192.05 390.00,192.05 390.00,178.56 376.51,178.56" fill="#A23B72" stroke="none"/>
<polygon points="390.00,192.05 403.49,192.05 403.49,178.56 390.00,178.56" fill="#F18F01" stroke="none"/>
<polygon points="403.49,192.05 416.99,192.05 416.99,178.56 403.49,178.56" fill="#F18F01" stroke="none"/>
<polygon points="416.99,192.05 430.48,192.05 430.48,178.56 416.99,178.56" fill="#F18F01" stroke="none"/>
<polygon points="430.48,192.05 443.97,192.05 443.97,178.56 430.48,178.56" fill="#F18F01" stroke="none"/>
<polygon points="443.97,192.05 457.47,192.05 457.47,178.56 443.97,178.56" fill="#A23B72" stroke="none"/>
<polygon points="457.47,192.05 470.96,192.05 470.96,178.56 457.47,178.56" fill="#A23B72" stroke="none"/>
<polygon points="470.96,192.05 484.45,192.05 484.45,178.56 470.96,178.56" fill="#2E86AB" stroke="none"/>
<polygon points="484.45,192.05 497.95,192.05 497.95,178.56 484.45,178.56" fill="#2E86AB" stroke="none"/>
<polygon points="497.95,192.05 511.44,192.05 511.44,178.56 497.95,178.56" fill="#2E86AB" stroke="none"/>
<polygon points="511.44,192.05 524.93,192.05 524.93,178.56 511.44,178.56" fill="#A23B72" stroke="none"/>
<polygon points="524.93,192.05 538.43,192.05 538.43,178.56 524.93,178.56" fill="#A23B72" stroke="none"/>
<polygon points="538.43,192.05 551.92,192.05 551.92,178.56 538.43,178.56" fill="#F18F01" stroke="none"/>
<polygon points="228.08,178.56 241.57,178.56 241.57,165.07 228.08,165.07" fill="#F18F01" stroke="none"/>
<polygon points="241.57,178.56 255.07,178.56 255.07,165.07 241.57,165.07" fill="#F18F01" stroke="none"/>
<polygon points="255.07,178.56 268.56,178.56 268.56,165.07 255.07,165.07" fill="#A23B72" stroke="none"/>
<polygon points="268.56,178.56 282.05,178.56 282.05,165.07 268.56,165.07" fill="#A23B72" stroke="none"/>
<polygon points="282.05,178.56 295.55,178.56 295.55,165.07 282.05,165.07" fill="#A23B72" stroke="none"/>
<polygon points="295.55,178.56 309.04,178.56 309.04,165.07 295.55,165.07" fill="#A23B72" stroke="none"/>
<polygon points="309.04,178.56 322.53,178.56 322.53,165.07 309.04,165.07" fill="#2E86AB" stroke="none"/>
<polygon points="322.53,178.56 336.03,178.56 336.03,165.07 322.53,165.07" fill="#A23B72" stroke="none"/>
<polygon points="336.03,178.56 349.52,178.56 349.52,165.07 336.03,165.07" fill="#A23B72" stroke="none"/>
<polygon points="349.52,178.56 363.01,178.56 363.01,165.07 349.52,165.07" fill="#A23B72" stroke="none"/>
<polygon points="363.01,178.56 376.51,178.56 376.51,165.07 363.01,165.07" fill="#F18F01" stroke="none"/>
<polygon points="376.51,178.56 390.00,178.56 390.00,165.07 376.51,165.07" fill="#A23B72" stroke="none"/>
<polygon points="390.00,178.56 403.49,178.56 403.49,165.07 390.00,165.07" fill="#A23B72" stroke="none"/>
<polygon points="403.49,178.56 416.99,178.56 416.99,165.07 403.49,165.07" fill="#A23B72" stroke="none"/>
<polygon points="416.99,178.56 430.48,178.56 430.48,165.07 416.99,165.07" fill="#A23B72" stroke="none"/>
<polygon points="430.48,178.56 443.97,178.56 443.97,165.07 430.48,165.07" fill="#A23B72" stroke="none"/>
<polygon points="443.97,178.56 457.47,178.56 457.47,165.07 443.97,165.07" fill="#2E86AB" stroke="none"/>
<polygon points="457.47,178.56 470.96,178.56 470.96,165.07 457.47,165.07" fill="#A23B72" stroke="none"/>
<polygon points="470.96,178.56 484.45,178.56 484.45,165.07 470.96,165.07" fill="#2E86AB" stroke="none"/>
<polygon points="484.45,178.56 497.95,178.56 497.95,165.07 484.45,165.07" fill="#2E86AB" stroke="none"/>
<polygon points="497.95,178.56 511.44,178.56 511.44,165.07 497.95,165.07" fill="#A23B72" stroke="none"/>
<polygon points="511.44,178.56 524.93,178.56 524.93,165.07 511.44,165.07" fill="#A23B72" stroke="none"/>
<polygon points="524.93,178.56 538.43,178.56 538.43,165.07 524.93,165.07" fill="#A23B72" stroke="none"/>
<polygon points="538.43,178.56 551.92,178.56 551.92,165.07 538.43,165.07" fill="#F18F01" stroke="none"/>
<polygon points="241.57,165.07 255.07,165.07 255.07,151.57 241.57,151.57" fill="#F18F01" stroke="none"/>
<polygon points="255.07,165.07 268.56,165.07 268.56,151.57 255.07,151.57" fill="#F18F01" stroke="none"/>
<polygon points="268.56,165.07 282.05,165.07 282.05,151.57 268.56,151.57" fill="#A23B72" stroke="none"/>
<polygon points="282.05,165.07 295.55,165.07 295.55,151.57 282.05,151.57" fill="#2E86AB" stroke="none"/>
<polygon points="295.55,165.07 309.04,165.07 309.04,151.57 295.55,151.57" fill="#2E86AB" stroke="none"/>
<polygon points="309.04,165.07 322.53,165.07 322.53,151.57 309.04,151.57" fill="#2E86AB" stroke="none"/>
<polygon points="322.53,165.07 336.03,165.07 336.03,151.57 322.53,151.57" fill="#2E86AB" stroke="none"/>
<polygon points="336.03,165.07 349.52,165.07 349.52,151.57 336.03,151.57" fill="#2E86AB" stroke="none"/>
<polygon points="349.52,165.07 363.01,165.07 363.01,151.57 349.52,151.57" fill="#A23B72" stroke="none"/>
<polygon points="363.01,165.07 376.51,165.07 376.51,151.57 363.01,151.57" fill="#2E86AB" stroke="none"/>
<polygon points="376.51,165.07 390.00,165.07 390.00,151.57 376.51,151.57" fill="#A23B72" stroke="none"/>
<polygon points="390.00,165.07 403.49,165.07 403.49,151.57 390.00,151.57" fill="#2E86AB" stroke="none"/>
<polygon points="403.49,165.07 416.99,165.07 416.99,151.57 403.49,151.57" fill="#2E86AB" stroke="none"/>
<polygon points="416.99,165.07 430.48,165.07 430.48,151.57 416.99,151.57" fill="#A23B72" stroke="none"/>
<polygon points="430.48,165.07 443.97,165.07 443.97,151.57 430.48,151.57" fill="#A23B72" stroke="none"/>
<polygon points="443.97,165.07 457.47,165.07 457.47,151.57 443.97,151.57" fill="#2E86AB" stroke="none"/>
<polygon points="457.47,165.07 470.96,165.07 470.96,151.57 457.47,151.57" fill="#A23B72" stroke="none"/>
<polygon points="470.96,165.07 484.45,165.07 484.45,151.57 470.96,151.57" fill="#2E86AB" stroke="none"/>
<polygon points="484.45,165.07 497.95,165.07 497.95,151.57 484.45,151.57" fill="#A23B72" stroke="none"/>
<polygon points="497.95,165.07 511.44,165.07 511.44,151.57 497.95,151.57" fill="#2E86AB" stroke="none"/>
<polygon points="511.44,165.07 524.93,165.07 524.93,151.57 511.44,151.57" fill="#A23B72" stroke="none"/>
<polygon points="524.93,165.07 538.43,165.07 538.43,151.57 524.93,151.57" fill="#A23B72" stroke="none"/>
<polygon points="255.07,151.57 268.56,151.57 268.56,138.08 255.07,138.08" fill="#F18F01" stroke="none"/>
<polygon points="268.56,151.57 282.05,151.57 282.05,138.08 268.56,138.08" fill="#F18F01" stroke="none"/>
<polygon points="282.05,151.57 295.55,151.57 295.55,138.08 282.05,138.08" fill="#A23B72" stroke="none"/>
<polygon points="295.55,151.57 309.04,151.57 309.04,138.08 295.55,138.08" fill="#2E86AB" stroke="none"/>
<polygon points="309.04,151.57 322.53,151.57 322.53,138.08 309.04,138.08" fill="#A23B72" stroke="none"/>
<polygon points="322.53,151.57 336.03,151.57 336.03,138.08 322.53,138.08" fill="#A23B72" stroke="none"/>
<polygon points="336.03,151.57 349.52,151.57 349.52,138.08 336.03,138.08" fill="#2E86AB" stroke="none"/>
<polygon points="349.52,151.57 363.01,151.57 363.01,138.08 349.52,138.08" fill="#2E86AB" stroke="none"/>
<polygon points="363.01,151.57 376.51,151.57 376.51,138.08 363.01,138.08" fill="#A23B72" stroke="none"/>
<polygon points="376.51,151.57 390.00,151.57 390.00,138.08 376.51,138.08" fill="#A23B72" stroke="none"/>
<polygon points="390.00,151.57 403.49,151.57 403.49,138.08 390.00,138.08" fill="#2E86AB" stroke="none"/>
<polygon points="403.49,151.57 416.99,151.57 416.99,138.08 403.49,138.08" fill="#2E86AB" stroke="none"/>
<polygon points="416.99,151.57 430.48,151.57 430.48,138.08 416.99,138.08" fill="#2E86AB" stroke="none"/>
<polygon points="430.48,151.57 443.97,151.57 443.97,138.08 430.48,138.08" fill="#2E86AB" stroke="none"/>
<polygon points="443.97,151.57 457.47,151.57 457.47,138.08 443.97,138.08" fill="#2E86AB" stroke="none"/>
<polygon points="457.47,151.57 470.96,151.57 470.96,138.08 457.47,138.08" fill="#2E86AB" stroke="none"/>
<polygon points="470.96,151.57 484.45,151.57 484.45,138.08 470.96,138.08" fill="#2E86AB" stroke="none"/>
<polygon points="484.45,151.57 497.95,151.57 497.95,138.08 484.45,138.08" fill="#A23B72" stroke="none"/>
<polygon points="497.95,151.57 511.44,151.57 511.44,138.08 497.95,138.08" fill="#A23B72" stroke="none"/>
<polygon points="511.44,151.57 524.93,151.57 524.93,138.08 511.44,138.08" fill="#A23B72" stroke="none"/>
<polygon points="282.05,138.08 295.55,138.08 295.55,124.59 282.05,124.59" fill="#F18F01" stroke="none"/>
<polygon points="295.55,138.08 309.04,138.08 309.04,124.59 295.55,124.59" fill="#A23B72" stroke="none"/>
<polygon points="309.04,138.08 322.53,138.08 322.53,124.59 309.04,124.59" fill="#A23B72" stroke="none"/>
<polygon points="322.53,138.08 336.03,138.08 336.03,124.59 322.53,124.59" fill="#A23B72" stroke="none"/>
<polygon points="336.03,138.08 349.52,138.08 349.52,124.59 336.03,124.59" fill="#A23B72" stroke="none"/>
<polygon points="349.52,138.08 363.01,138.08 363.01,124.59 349.52,124.59" fill="#A23B72" stroke="none"/>
<polygon points="363.01,138.08 376.51,138.08 376.51,124.59 363.01,124.59" fill="#2E86AB" stroke="none"/>
<polygon points="376.51,138.08 390.00,138.08 390.00,124.59 376.51,124.59" fill="#A23B72" stroke="none"/>
<polygon points="390.00,138.08 403.49,138.08 403.49,124.59 390.00,124.59" fill="#2E86AB" stroke="none"/>
<polygon points="403.49,138.08 416.99,138.08 416.99,124.59 403.49,124.59" fill="#2E86AB" stroke="none"/>
<polygon points="416.99,138.08 430.48,138.08 430.48,124.59 416.99,124.59" fill="#A23B72" stroke="none"/>
<polygon points="430.48,138.08 443.97,138.08 443.97,124.59 430.48,124.59" fill="#A23B72" stroke="none"/>
<polygon points="443.97,138.08 457.47,138.08 457.47,124.59 443.97,124.59" fill="#2E86AB" stroke="none"/>
<polygon points="457.47,138.08 470.96,138.08 470.96,124.59 457.47,124.59" fill="#A23B72" stroke="none"/>
<polygon points="470.96,138.08 484.45,138.08 484.45,124.59 470.96,124.59" fill="#A23B72" stroke="none"/>
<polygon points="484.45,138.08 497.95,138.08 497.95,124.59 484.45,124.59" fill="#A23B72" stroke="none"/>
<polygon points="295.55,124.59 309.04,124.59 309.04,111.09 295.55,111.09" fill="#F18F01" stroke="none"/>
<polygon points="309.04,124.59 322.53,124.59 322.53,111.09 309.04,111.09" fill="#F18F01" stroke="none"/>
<polygon points="322.53,124.59 336.03,124.59 336.03,111.09 322.53,111.09" fill="#A23B72" stroke="none"/>
<polygon points="336.03,124.59 349.52,124.59 349.52,111.09 336.03,111.09" fill="#A23B72" stroke="none"/>
<polygon points="349.52,124.59 363.01,124.59 363.01,111.09 349.52,111.09" fill="#A23B72" stroke="none"/>
<polygon points="363.01,124.59 376.51,124.59 376.51,111.09 363.01,111.09" fill="#A23B72" stroke="none"/>
<polygon points="376.51,124.59 390.00,124.59 390.00,111.09 376.51,111.09" fill="#A23B72" stroke="none"/>
<polygon points="390.00,124.59 403.49,124.59 403.49,111.09 390.00,111.09" fill="#A23B72" stroke="none"/>
<polygon points="403.49,124.59 416.99,124.59 416.99,111.09 403.49,111.09" fill="#2E86AB" stroke="none"/>
<polygon points="416.99,124.59 430.48,124.59 430.48,111.09 416.99,111.09" fill="#A23B72" stroke="none"/>
<polygon points="430.48,124.59 443.97,124.59 443.97,111.09 430.48,111.09" fill="#A23B72" stroke="none"/>
<polygon points="443.97,124.59 457.47,124.59 457.47,111.09 443.97,111.09" fill="#A23B72" stroke="none"/>
<polygon points="457.47,124.59 470.96,124.59 470.96,111.09 457.47,111.09" fill="#A23B72" stroke="none"/>
<polygon points="470.96,124.59 484.45,124.59 484.45,111.09 470.96,111.09" fill="#F18F01" stroke="none"/>
<polygon points="336.03,111.09 349.52,111.09 349.52,97.60 336.03,97.60" fill="#F18F01" stroke="none"/>
<polygon points="349.52,111.09 363.01,111.09 363.01,97.60 349.52,97.60" fill="#F18F01" stroke="none"/>
<polygon points="363.01,111.09 376.51,111.09 376.51,97.60 363.01,97.60" fill="#F18F01" stroke="none"/>
<polygon points="376.51,111.09 390.00,111.09 390.00,97.60 376.51,97.60" fill="#F18F01" stroke="none"/>
<polygon points="390.00,111.09 403.49,111.09 403.49,97.60 390.00,97.60" fill="#F18F01" stroke="none"/>
<polygon points="403.49,111.09 416.99,111.09 416.99,97.60 403.49,97.60" fill="#A23B72" stroke="none"/>
<polygon points="416.99,111.09 430.48,111.09 430.48,97.60 416.99,97.60" fill="#F18F01" stroke="none"/>
<polygon points="430.48,111.09 443.97,111.09 443.97,97.60 430.48,97.60" fill="#A23B72" stroke="none"/>
</g>
<circle cx="390.0" cy="300.0" r="202.4" stroke="navy" fill="none" stroke-width="2"/>
<rect x="740" y="90" width="20" height="24" fill="#8B0000" stroke="black" stroke-width="1"/>
<text x="768" y="106">73.4..90.6</text>
<rect x="740" y="118" width="20" height="24" fill="#C73E1D" stroke="black" stroke-width="1"/>
<text x="768" y="134">56.2..73.4</text>
<rect x="740" y="146" width="20" height="24" fill="#F18F01" stroke="black" stroke-width="1"/>
<text x="768" y="162">39.0..56.2</text>
<rect x="740" y="174" width="20" height="24" fill="#A23B72" stroke="black" stroke-width="1"/>
<text x="768" y="190">21.9..39.0</text>
<rect x="740" y="202" width="20" height="24" fill="#2E86AB" stroke="black" stroke-width="1"/>
<text x="768" y="218">4.7..21.9</text>
</svg>